<svg width="83" height="36" viewBox="0 0 83 36" fill="none" xmlns="http://www.w3.org/2000/svg">
<mask id="path-1-inside-1_103_76" fill="white">
<rect y="4.25195" width="82.4854" height="27.4951" rx="1"/>
</mask>
<rect y="4.25195" width="82.4854" height="27.4951" rx="1" stroke="#404660" stroke-width="4" mask="url(#path-1-inside-1_103_76)"/>
<mask id="path-2-inside-2_103_76" fill="white">
<path fill-rule="evenodd" clip-rule="evenodd" d="M82.4854 8.23071H0V12.034C2.48655 12.7524 4.31722 15.1965 4.31722 18.1011C4.31722 21.0057 2.48655 23.4498 0 24.1682V27.9717H82.4854V8.23071Z"/>
</mask>
<path fill-rule="evenodd" clip-rule="evenodd" d="M82.4854 8.23071H0V12.034C2.48655 12.7524 4.31722 15.1965 4.31722 18.1011C4.31722 21.0057 2.48655 23.4498 0 24.1682V27.9717H82.4854V8.23071Z" fill="#F9F9F9"/>
<path d="M0 8.23071V6.23071H-2V8.23071H0ZM82.4854 8.23071H84.4854V6.23071H82.4854V8.23071ZM0 12.034H-2V13.5379L-0.555176 13.9554L0 12.034ZM0 24.1682L-0.555175 22.2468L-2 22.6643V24.1682H0ZM0 27.9717H-2V29.9717H0V27.9717ZM82.4854 27.9717V29.9717H84.4854V27.9717H82.4854ZM0 10.2307H82.4854V6.23071H0V10.2307ZM2 12.034V8.23071H-2V12.034H2ZM-0.555176 13.9554C1.01486 14.409 2.31722 16.0224 2.31722 18.1011H6.31722C6.31722 14.3707 3.95823 11.0958 0.555176 10.1126L-0.555176 13.9554ZM2.31722 18.1011C2.31722 20.1798 1.01486 21.7932 -0.555175 22.2468L0.555175 26.0896C3.95823 25.1063 6.31722 21.8315 6.31722 18.1011H2.31722ZM2 27.9717V24.1682H-2V27.9717H2ZM82.4854 25.9717H0V29.9717H82.4854V25.9717ZM80.4854 8.23071V27.9717H84.4854V8.23071H80.4854Z" fill="#404660" mask="url(#path-2-inside-2_103_76)"/>
<path d="M78.5559 2.43711L78.5575 8.17993L73.1736 8.1814L73.1731 6.26713L74.8292 4.73526L74.8286 2.43813C74.8281 0.523851 78.5554 0.522833 78.5559 2.43711Z" fill="#F9F9F9" stroke="#404660" stroke-width="2" stroke-linecap="round"/>
<path d="M3.92824 2.43711L3.92981 8.17993L9.31371 8.17846L9.31318 6.26419L7.65618 4.73322L7.65555 2.43609C7.65503 0.521815 3.92772 0.522833 3.92824 2.43711Z" fill="#F9F9F9" stroke="#404660" stroke-width="2" stroke-linecap="round"/>
<path fill-rule="evenodd" clip-rule="evenodd" d="M29.7954 1.00325C30.7497 0.978629 31.7285 1.45664 31.7288 2.43754L31.7294 4.73467L33.3864 6.26564L33.387 8.17991L31.5924 8.1804L31.5924 8.18042L26.2085 8.18189L26.208 6.26762L27.8642 4.73575L27.8635 2.43862C27.8633 1.458 28.8412 0.979455 29.7954 1.00325Z" fill="#F9F9F9"/>
<path d="M31.7288 2.43754L32.7288 2.43727L32.7288 2.43726L31.7288 2.43754ZM29.7954 1.00325L29.7704 2.00294L29.7958 2.00357L29.8211 2.00291L29.7954 1.00325ZM31.7294 4.73467L30.7294 4.73494L30.7296 5.17233L31.0508 5.46916L31.7294 4.73467ZM33.3864 6.26564L34.3864 6.26536L34.3863 5.82797L34.0651 5.53115L33.3864 6.26564ZM33.387 8.17991L33.3872 9.17991L34.3872 9.17964L34.387 8.17964L33.387 8.17991ZM31.5924 8.1804L31.5922 7.1804L30.5922 7.18067L30.5924 8.18067L31.5924 8.1804ZM31.5924 8.18042L31.5927 9.18042L32.5927 9.18015L32.5924 8.18015L31.5924 8.18042ZM26.2085 8.18189L25.2085 8.18217L25.2088 9.18217L26.2088 9.18189L26.2085 8.18189ZM26.208 6.26762L25.529 5.5335L25.2079 5.8305L25.208 6.26789L26.208 6.26762ZM27.8642 4.73575L28.5432 5.46986L28.8643 5.17286L28.8642 4.73547L27.8642 4.73575ZM32.7288 2.43726C32.7286 1.55963 32.2693 0.901765 31.6688 0.507423C31.099 0.133307 30.4038 -0.0127799 29.7696 0.00357814L29.8211 2.00291C30.1413 1.99465 30.4127 2.07526 30.571 2.17922C30.6442 2.22731 30.6801 2.27111 30.6977 2.30119C30.7128 2.32692 30.7288 2.3659 30.7288 2.43781L32.7288 2.43726ZM32.7294 4.7344L32.7288 2.43727L30.7288 2.43781L30.7294 4.73494L32.7294 4.7344ZM34.0651 5.53115L32.4081 4.00018L31.0508 5.46916L32.7078 7.00012L34.0651 5.53115ZM34.387 8.17964L34.3864 6.26536L32.3864 6.26591L32.387 8.18018L34.387 8.17964ZM31.5927 9.1804L33.3872 9.17991L33.3867 7.17991L31.5922 7.1804L31.5927 9.1804ZM30.5924 8.18067L30.5924 8.18069L32.5924 8.18015L32.5924 8.18013L30.5924 8.18067ZM31.5922 7.18042L26.2083 7.18189L26.2088 9.18189L31.5927 9.18042L31.5922 7.18042ZM27.2085 8.18162L27.208 6.26734L25.208 6.26789L25.2085 8.18217L27.2085 8.18162ZM26.887 7.00174L28.5432 5.46986L27.1852 4.00163L25.529 5.5335L26.887 7.00174ZM28.8642 4.73547L28.8635 2.43834L26.8635 2.43889L26.8642 4.73602L28.8642 4.73547ZM28.8635 2.43834C28.8635 2.36645 28.8795 2.32746 28.8946 2.30173C28.9121 2.27166 28.948 2.22786 29.0211 2.17975C29.1792 2.07574 29.4503 1.99495 29.7704 2.00294L29.8203 0.00355666C29.1863 -0.0122528 28.4914 0.134335 27.922 0.508807C27.3219 0.903526 26.8633 1.56154 26.8635 2.43889L28.8635 2.43834Z" fill="#404660"/>
<path fill-rule="evenodd" clip-rule="evenodd" d="M18.0116 1.00325C18.966 0.978609 19.9449 1.45662 19.9451 2.43754L19.9457 4.73467L21.6027 6.26564L21.6033 8.17991L19.8086 8.1804L19.8086 8.18042L14.4247 8.18189L14.4242 6.26762L16.0804 4.73575L16.0797 2.43862C16.0795 1.45798 17.0575 0.979435 18.0116 1.00325Z" fill="#F9F9F9"/>
<path d="M19.9451 2.43754L20.9451 2.43727L20.9451 2.43726L19.9451 2.43754ZM18.0116 1.00325L17.9867 2.00294L18.012 2.00357L18.0374 2.00291L18.0116 1.00325ZM19.9457 4.73467L18.9457 4.73494L18.9459 5.17233L19.2671 5.46916L19.9457 4.73467ZM21.6027 6.26564L22.6027 6.26536L22.6026 5.82797L22.2814 5.53115L21.6027 6.26564ZM21.6033 8.17991L21.6035 9.17991L22.6035 9.17964L22.6033 8.17964L21.6033 8.17991ZM19.8086 8.1804L19.8083 7.1804L18.8083 7.18067L18.8086 8.18067L19.8086 8.1804ZM19.8086 8.18042L19.8089 9.18042L20.8089 9.18015L20.8086 8.18015L19.8086 8.18042ZM14.4247 8.18189L13.4247 8.18217L13.425 9.18217L14.425 9.18189L14.4247 8.18189ZM14.4242 6.26762L13.7452 5.5335L13.4241 5.8305L13.4242 6.26789L14.4242 6.26762ZM16.0804 4.73575L16.7594 5.46986L17.0805 5.17286L17.0804 4.73547L16.0804 4.73575ZM16.0797 2.43862L17.0797 2.43834L16.0797 2.43862ZM20.9451 2.43726C20.9449 1.55961 20.4856 0.901738 19.885 0.5074C19.3153 0.133287 18.62 -0.0127913 17.9858 0.00358007L18.0374 2.00291C18.3576 1.99465 18.629 2.07525 18.7873 2.17921C18.8605 2.22731 18.8964 2.27111 18.914 2.30119C18.9291 2.32692 18.9451 2.3659 18.9451 2.43781L20.9451 2.43726ZM20.9457 4.7344L20.9451 2.43727L18.9451 2.43781L18.9457 4.73494L20.9457 4.7344ZM22.2814 5.53115L20.6244 4.00018L19.2671 5.46916L20.9241 7.00012L22.2814 5.53115ZM22.6033 8.17964L22.6027 6.26536L20.6027 6.26591L20.6033 8.18018L22.6033 8.17964ZM19.8089 9.1804L21.6035 9.17991L21.603 7.17991L19.8083 7.1804L19.8089 9.1804ZM18.8086 8.18067L18.8086 8.18069L20.8086 8.18015L20.8086 8.18013L18.8086 8.18067ZM19.8083 7.18042L14.4244 7.18189L14.425 9.18189L19.8089 9.18042L19.8083 7.18042ZM15.4247 8.18162L15.4242 6.26734L13.4242 6.26789L13.4247 8.18217L15.4247 8.18162ZM15.1032 7.00174L16.7594 5.46986L15.4013 4.00163L13.7452 5.5335L15.1032 7.00174ZM17.0804 4.73547L17.0797 2.43834L15.0797 2.43889L15.0804 4.73602L17.0804 4.73547ZM17.0797 2.43834C17.0797 2.36644 17.0957 2.32746 17.1107 2.30173C17.1283 2.27166 17.1641 2.22786 17.2373 2.17974C17.3954 2.07574 17.6665 1.99495 17.9867 2.00294L18.0366 0.00355858C17.4025 -0.0122652 16.7076 0.134314 16.1383 0.508783C15.5381 0.903498 15.0795 1.56152 15.0797 2.43889L17.0797 2.43834Z" fill="#404660"/>
<path fill-rule="evenodd" clip-rule="evenodd" d="M53.3626 1.00325C54.317 0.978626 55.2958 1.45663 55.2961 2.43754L55.2967 4.73467L56.9537 6.26564L56.9542 8.17991L55.1597 8.1804L55.1597 8.18042L49.7758 8.18189L49.7753 6.26762L51.4314 4.73575L51.4308 2.43862C51.4305 1.45801 52.4085 0.979458 53.3626 1.00325Z" fill="#F9F9F9"/>
<path d="M55.2961 2.43754L56.2961 2.43726L55.2961 2.43754ZM53.3626 1.00325L53.3377 2.00294L53.363 2.00357L53.3884 2.00291L53.3626 1.00325ZM55.2967 4.73467L54.2967 4.73494L54.2968 5.17233L54.6181 5.46916L55.2967 4.73467ZM56.9537 6.26564L57.9537 6.26536L57.9536 5.82797L57.6323 5.53115L56.9537 6.26564ZM56.9542 8.17991L56.9545 9.17991L57.9545 9.17964L57.9542 8.17964L56.9542 8.17991ZM55.1597 8.1804L55.1594 7.1804L54.1594 7.18067L54.1597 8.18067L55.1597 8.1804ZM55.1597 8.18042L55.16 9.18042L56.16 9.18015L56.1597 8.18015L55.1597 8.18042ZM49.7758 8.18189L48.7758 8.18217L48.7761 9.18217L49.7761 9.18189L49.7758 8.18189ZM49.7753 6.26762L49.0962 5.5335L48.7752 5.8305L48.7753 6.26789L49.7753 6.26762ZM51.4314 4.73575L52.1105 5.46986L52.4316 5.17286L52.4314 4.73547L51.4314 4.73575ZM51.4308 2.43862L52.4308 2.43834L51.4308 2.43862ZM56.2961 2.43726C56.2958 1.55962 55.8366 0.901761 55.236 0.50742C54.6663 0.133304 53.971 -0.0127818 53.3368 0.00357815L53.3884 2.00291C53.7086 1.99465 53.9799 2.07526 54.1383 2.17922C54.2115 2.22731 54.2474 2.27111 54.265 2.30119C54.28 2.32692 54.2961 2.3659 54.2961 2.43781L56.2961 2.43726ZM56.2967 4.7344L56.2961 2.43726L54.2961 2.43781L54.2967 4.73494L56.2967 4.7344ZM57.6323 5.53115L55.9753 4.00018L54.6181 5.46916L56.2751 7.00012L57.6323 5.53115ZM57.9542 8.17964L57.9537 6.26536L55.9537 6.26591L55.9542 8.18018L57.9542 8.17964ZM55.16 9.1804L56.9545 9.17991L56.954 7.17991L55.1594 7.1804L55.16 9.1804ZM54.1597 8.18067L54.1597 8.18069L56.1597 8.18015L56.1597 8.18013L54.1597 8.18067ZM55.1594 7.18042L49.7755 7.18189L49.7761 9.18189L55.16 9.18042L55.1594 7.18042ZM50.7758 8.18162L50.7753 6.26734L48.7753 6.26789L48.7758 8.18217L50.7758 8.18162ZM50.4543 7.00173L52.1105 5.46986L50.7524 4.00163L49.0962 5.5335L50.4543 7.00173ZM52.4314 4.73547L52.4308 2.43834L50.4308 2.43889L50.4314 4.73602L52.4314 4.73547ZM52.4308 2.43834C52.4308 2.36645 52.4468 2.32746 52.4618 2.30174C52.4794 2.27166 52.5152 2.22786 52.5884 2.17975C52.7465 2.07575 53.0176 1.99495 53.3377 2.00294L53.3875 0.00355667C52.7535 -0.0122509 52.0586 0.134338 51.4893 0.508812C50.8892 0.903531 50.4306 1.56154 50.4308 2.43889L52.4308 2.43834Z" fill="#404660"/>
<path fill-rule="evenodd" clip-rule="evenodd" d="M65.1462 1.00325C66.1006 0.978626 67.0794 1.45663 67.0796 2.43754L67.0803 4.73467L68.7373 6.26564L68.7378 8.17991L66.9433 8.1804L66.9433 8.18042L61.5594 8.18189L61.5588 6.26762L63.215 4.73575L63.2144 2.43862C63.2141 1.45801 64.1921 0.979458 65.1462 1.00325Z" fill="#F9F9F9"/>
<path d="M67.0796 2.43754L68.0796 2.43726L67.0796 2.43754ZM65.1462 1.00325L65.1213 2.00294L65.1466 2.00357L65.172 2.00291L65.1462 1.00325ZM67.0803 4.73467L66.0803 4.73494L66.0804 5.17233L66.4016 5.46916L67.0803 4.73467ZM68.7373 6.26564L69.7373 6.26536L69.7372 5.82797L69.4159 5.53115L68.7373 6.26564ZM68.7378 8.17991L68.7381 9.17991L69.7381 9.17964L69.7378 8.17964L68.7378 8.17991ZM66.9433 8.1804L66.943 7.1804L65.943 7.18067L65.9433 8.18067L66.9433 8.1804ZM66.9433 8.18042L66.9435 9.18042L67.9435 9.18015L67.9433 8.18015L66.9433 8.18042ZM61.5594 8.18189L60.5594 8.18217L60.5596 9.18217L61.5596 9.18189L61.5594 8.18189ZM61.5588 6.26762L60.8798 5.5335L60.5587 5.8305L60.5588 6.26789L61.5588 6.26762ZM63.215 4.73575L63.894 5.46986L64.2151 5.17286L64.215 4.73547L63.215 4.73575ZM63.2144 2.43862L62.2144 2.43889L63.2144 2.43862ZM68.0796 2.43726C68.0794 1.55962 67.6201 0.901761 67.0196 0.50742C66.4498 0.133304 65.7546 -0.0127818 65.1204 0.00357815L65.172 2.00291C65.4922 1.99465 65.7635 2.07526 65.9218 2.17922C65.9951 2.22731 66.0309 2.27111 66.0485 2.30119C66.0636 2.32692 66.0796 2.3659 66.0796 2.43781L68.0796 2.43726ZM68.0803 4.7344L68.0796 2.43726L66.0796 2.43781L66.0803 4.73494L68.0803 4.7344ZM69.4159 5.53115L67.7589 4.00018L66.4016 5.46916L68.0586 7.00012L69.4159 5.53115ZM69.7378 8.17964L69.7373 6.26536L67.7373 6.26591L67.7378 8.18018L69.7378 8.17964ZM66.9435 9.1804L68.7381 9.17991L68.7375 7.17991L66.943 7.1804L66.9435 9.1804ZM65.9433 8.18067L65.9433 8.18069L67.9433 8.18015L67.9433 8.18013L65.9433 8.18067ZM66.943 7.18042L61.5591 7.18189L61.5596 9.18189L66.9435 9.18042L66.943 7.18042ZM62.5594 8.18162L62.5588 6.26734L60.5588 6.26789L60.5594 8.18217L62.5594 8.18162ZM62.2379 7.00174L63.894 5.46986L62.536 4.00163L60.8798 5.5335L62.2379 7.00174ZM64.215 4.73547L64.2144 2.43834L62.2144 2.43889L62.215 4.73602L64.215 4.73547ZM64.2144 2.43834C64.2144 2.36645 64.2304 2.32746 64.2454 2.30174C64.263 2.27166 64.2988 2.22786 64.3719 2.17975C64.53 2.07575 64.8012 1.99495 65.1213 2.00294L65.1711 0.00355667C64.5371 -0.0122509 63.8422 0.134338 63.2729 0.508812C62.6728 0.903531 62.2141 1.56154 62.2144 2.43889L64.2144 2.43834Z" fill="#404660"/>
<path fill-rule="evenodd" clip-rule="evenodd" d="M41.5789 1.00325C42.5333 0.978609 43.5121 1.45661 43.5124 2.43754L43.513 4.73467L45.17 6.26564L45.1705 8.17991L43.3759 8.1804L43.3759 8.18042L37.992 8.18189L37.9915 6.26762L39.6476 4.73575L39.647 2.43862C39.6467 1.45798 40.6247 0.979435 41.5789 1.00325Z" fill="#F9F9F9"/>
<path d="M43.5124 2.43754L44.5124 2.43727L44.5124 2.43726L43.5124 2.43754ZM41.5789 1.00325L41.5539 2.00294L41.5793 2.00357L41.6047 2.00291L41.5789 1.00325ZM43.513 4.73467L42.513 4.73494L42.5131 5.17233L42.8344 5.46916L43.513 4.73467ZM45.17 6.26564L46.17 6.26536L46.1699 5.82797L45.8486 5.53115L45.17 6.26564ZM45.1705 8.17991L45.1708 9.17991L46.1708 9.17964L46.1705 8.17964L45.1705 8.17991ZM43.3759 8.1804L43.3756 7.1804L42.3756 7.18067L42.3759 8.18067L43.3759 8.1804ZM43.3759 8.18042L43.3762 9.18042L44.3762 9.18015L44.3759 8.18015L43.3759 8.18042ZM37.992 8.18189L36.992 8.18217L36.9923 9.18217L37.9923 9.18189L37.992 8.18189ZM37.9915 6.26762L37.3124 5.5335L36.9913 5.8305L36.9915 6.26789L37.9915 6.26762ZM39.6476 4.73575L40.3266 5.46986L40.6477 5.17286L40.6476 4.73547L39.6476 4.73575ZM44.5124 2.43726C44.5121 1.55961 44.0529 0.901738 43.4523 0.507399C42.8825 0.133286 42.1873 -0.0127913 41.5531 0.00358007L41.6047 2.00291C41.9249 1.99465 42.1962 2.07525 42.3546 2.17921C42.4278 2.22731 42.4637 2.27111 42.4813 2.30119C42.4963 2.32692 42.5124 2.3659 42.5124 2.43781L44.5124 2.43726ZM44.513 4.7344L44.5124 2.43727L42.5124 2.43781L42.513 4.73494L44.513 4.7344ZM45.8486 5.53115L44.1916 4.00018L42.8344 5.46916L44.4914 7.00012L45.8486 5.53115ZM46.1705 8.17964L46.17 6.26536L44.17 6.26591L44.1705 8.18018L46.1705 8.17964ZM43.3762 9.1804L45.1708 9.17991L45.1703 7.17991L43.3756 7.1804L43.3762 9.1804ZM42.3759 8.18067L42.3759 8.18069L44.3759 8.18015L44.3759 8.18013L42.3759 8.18067ZM43.3756 7.18042L37.9917 7.18189L37.9923 9.18189L43.3762 9.18042L43.3756 7.18042ZM38.992 8.18162L38.9915 6.26734L36.9915 6.26789L36.992 8.18217L38.992 8.18162ZM38.6705 7.00174L40.3266 5.46986L38.9686 4.00163L37.3124 5.5335L38.6705 7.00174ZM40.6476 4.73547L40.647 2.43834L38.647 2.43889L38.6476 4.73602L40.6476 4.73547ZM40.647 2.43834C40.647 2.36644 40.663 2.32746 40.678 2.30173C40.6956 2.27166 40.7314 2.22786 40.8046 2.17975C40.9627 2.07574 41.2338 1.99495 41.5539 2.00294L41.6038 0.00355858C40.9698 -0.0122652 40.2749 0.134314 39.7055 0.508783C39.1054 0.903498 38.6468 1.56152 38.647 2.43889L40.647 2.43834Z" fill="#404660"/>
<path d="M3.92943 33.562L3.92786 27.8192L9.31175 27.8177L9.31228 29.732L7.65611 31.2639L7.65674 33.561C7.65726 35.4753 3.92995 35.4763 3.92943 33.562Z" fill="#F9F9F9" stroke="#404660" stroke-width="2" stroke-linecap="round"/>
<path d="M78.5571 33.562L78.5555 27.8192L73.1716 27.8207L73.1722 29.735L74.8292 31.2659L74.8298 33.5631C74.8303 35.4773 78.5576 35.4763 78.5571 33.562Z" fill="#F9F9F9" stroke="#404660" stroke-width="2" stroke-linecap="round"/>
<path fill-rule="evenodd" clip-rule="evenodd" d="M52.69 34.9959C51.7356 35.0205 50.7568 34.5425 50.7565 33.5616L50.7559 31.2645L49.0989 29.7335L49.0984 27.8192L50.8929 27.8187L50.8929 27.8187L56.2768 27.8173L56.2773 29.7315L54.6212 31.2634L54.6218 33.5605C54.6221 34.5411 53.6441 35.0197 52.69 34.9959Z" fill="#F9F9F9"/>
<path d="M50.7565 33.5616L49.7565 33.5619L50.7565 33.5616ZM52.69 34.9959L52.7149 33.9962L52.6896 33.9956L52.6642 33.9962L52.69 34.9959ZM50.7559 31.2645L51.7559 31.2642L51.7558 30.8268L51.4345 30.53L50.7559 31.2645ZM49.0989 29.7335L48.0989 29.7338L48.099 30.1712L48.4203 30.468L49.0989 29.7335ZM49.0984 27.8192L49.0981 26.8192L48.0981 26.8195L48.0984 27.8195L49.0984 27.8192ZM50.8929 27.8187L50.8932 28.8187L51.8932 28.8185L51.8929 27.8185L50.8929 27.8187ZM50.8929 27.8187L50.8926 26.8187L49.8926 26.819L49.8929 27.819L50.8929 27.8187ZM56.2768 27.8173L57.2768 27.817L57.2765 26.817L56.2765 26.8173L56.2768 27.8173ZM56.2773 29.7315L56.9564 30.4656L57.2775 30.1686L57.2773 29.7313L56.2773 29.7315ZM54.6212 31.2634L53.9422 30.5293L53.6211 30.8263L53.6212 31.2637L54.6212 31.2634ZM49.7565 33.5619C49.7568 34.4395 50.216 35.0974 50.8166 35.4917C51.3863 35.8658 52.0816 36.0119 52.7158 35.9956L52.6642 33.9962C52.344 34.0045 52.0727 33.9239 51.9144 33.8199C51.8411 33.7718 51.8052 33.728 51.7876 33.698C51.7726 33.6722 51.7566 33.6332 51.7565 33.5613L49.7565 33.5619ZM49.7559 31.2648L49.7565 33.5619L51.7565 33.5613L51.7559 31.2642L49.7559 31.2648ZM48.4203 30.468L50.0773 31.999L51.4345 30.53L49.7775 28.999L48.4203 30.468ZM48.0984 27.8195L48.0989 29.7338L50.0989 29.7332L50.0984 27.819L48.0984 27.8195ZM50.8926 26.8187L49.0981 26.8192L49.0987 28.8192L50.8932 28.8187L50.8926 26.8187ZM51.8929 27.8185L51.8929 27.8185L49.8929 27.819L49.8929 27.819L51.8929 27.8185ZM50.8932 28.8187L56.2771 28.8173L56.2765 26.8173L50.8926 26.8187L50.8932 28.8187ZM55.2768 27.8175L55.2773 29.7318L57.2773 29.7313L57.2768 27.817L55.2768 27.8175ZM55.5983 28.9974L53.9422 30.5293L55.3002 31.9975L56.9564 30.4656L55.5983 28.9974ZM53.6212 31.2637L53.6218 33.5608L55.6218 33.5603L55.6212 31.2631L53.6212 31.2637ZM53.6218 33.5608C53.6218 33.6327 53.6058 33.6717 53.5908 33.6974C53.5732 33.7275 53.5374 33.7713 53.4643 33.8194C53.3061 33.9234 53.035 34.0042 52.7149 33.9962L52.6651 35.9956C53.2991 36.0114 53.994 35.8648 54.5633 35.4903C55.1634 35.0956 55.622 34.4376 55.6218 33.5603L53.6218 33.5608Z" fill="#404660"/>
<path fill-rule="evenodd" clip-rule="evenodd" d="M64.4737 34.9959C63.5193 35.0205 62.5405 34.5425 62.5402 33.5616L62.5396 31.2645L60.8826 29.7335L60.8821 27.8192L62.6767 27.8187L62.6767 27.8187L68.0606 27.8173L68.0612 29.7315L66.405 31.2634L66.4056 33.5605C66.4059 34.5412 65.4279 35.0197 64.4737 34.9959Z" fill="#F9F9F9"/>
<path d="M62.5402 33.5616L61.5402 33.5619L62.5402 33.5616ZM64.4737 34.9959L64.4987 33.9962L64.4733 33.9956L64.4479 33.9962L64.4737 34.9959ZM62.5396 31.2645L63.5396 31.2642L63.5395 30.8268L63.2182 30.53L62.5396 31.2645ZM60.8826 29.7335L59.8826 29.7338L59.8827 30.1712L60.204 30.468L60.8826 29.7335ZM60.8821 27.8192L60.8818 26.8192L59.8818 26.8195L59.8821 27.8195L60.8821 27.8192ZM62.6767 27.8187L62.677 28.8187L63.677 28.8185L63.6767 27.8185L62.6767 27.8187ZM62.6767 27.8187L62.6765 26.8187L61.6765 26.819L61.6767 27.819L62.6767 27.8187ZM68.0606 27.8173L69.0606 27.817L69.0604 26.817L68.0604 26.8173L68.0606 27.8173ZM68.0612 29.7315L68.7402 30.4656L69.0613 30.1686L69.0612 29.7313L68.0612 29.7315ZM66.405 31.2634L65.726 30.5293L65.4049 30.8263L65.405 31.2637L66.405 31.2634ZM66.4056 33.5605L67.4056 33.5603L66.4056 33.5605ZM61.5402 33.5619C61.5405 34.4395 61.9998 35.0974 62.6003 35.4917C63.1701 35.8659 63.8654 36.0119 64.4995 35.9956L64.4479 33.9962C64.1277 34.0045 63.8564 33.9239 63.6981 33.8199C63.6248 33.7718 63.5889 33.728 63.5713 33.698C63.5563 33.6722 63.5403 33.6332 63.5402 33.5613L61.5402 33.5619ZM61.5396 31.2648L61.5402 33.5619L63.5402 33.5613L63.5396 31.2642L61.5396 31.2648ZM60.204 30.468L61.861 31.999L63.2182 30.53L61.5612 28.999L60.204 30.468ZM59.8821 27.8195L59.8826 29.7338L61.8826 29.7332L61.8821 27.819L59.8821 27.8195ZM62.6765 26.8187L60.8818 26.8192L60.8824 28.8192L62.677 28.8187L62.6765 26.8187ZM63.6767 27.8185L63.6767 27.8185L61.6767 27.819L61.6767 27.819L63.6767 27.8185ZM62.677 28.8187L68.0609 28.8173L68.0604 26.8173L62.6765 26.8187L62.677 28.8187ZM67.0606 27.8175L67.0612 29.7318L69.0612 29.7313L69.0606 27.817L67.0606 27.8175ZM67.3821 28.9974L65.726 30.5293L67.084 31.9975L68.7402 30.4656L67.3821 28.9974ZM65.405 31.2637L65.4056 33.5608L67.4056 33.5603L67.405 31.2631L65.405 31.2637ZM65.4056 33.5608C65.4056 33.6327 65.3896 33.6717 65.3746 33.6974C65.357 33.7275 65.3212 33.7713 65.2481 33.8194C65.0899 33.9234 64.8188 34.0042 64.4987 33.9962L64.4488 35.9956C65.0828 36.0114 65.7778 35.8648 66.3471 35.4904C66.9472 35.0956 67.4059 34.4376 67.4056 33.5603L65.4056 33.5608Z" fill="#404660"/>
<path fill-rule="evenodd" clip-rule="evenodd" d="M29.1228 34.9979C28.1685 35.0225 27.1897 34.5445 27.1894 33.5636L27.1888 31.2664L25.5318 29.7355L25.5313 27.8212L27.3258 27.8207L27.3258 27.8207L32.7097 27.8192L32.7102 29.7335L31.054 31.2654L31.0547 33.5625C31.0549 34.5431 30.077 35.0216 29.1228 34.9979Z" fill="#F9F9F9"/>
<path d="M27.1894 33.5636L26.1894 33.5638L27.1894 33.5636ZM29.1228 34.9979L29.1478 33.9982L29.1224 33.9975L29.0971 33.9982L29.1228 34.9979ZM27.1888 31.2664L28.1888 31.2662L28.1887 30.8288L27.8674 30.5319L27.1888 31.2664ZM25.5318 29.7355L24.5318 29.7357L24.5319 30.1731L24.8532 30.47L25.5318 29.7355ZM25.5313 27.8212L25.531 26.8212L24.531 26.8215L24.5313 27.8215L25.5313 27.8212ZM27.3258 27.8207L27.3261 28.8207L28.3261 28.8204L28.3258 27.8204L27.3258 27.8207ZM27.3258 27.8207L27.3255 26.8207L26.3255 26.821L26.3258 27.8209L27.3258 27.8207ZM32.7097 27.8192L33.7097 27.8189L33.7094 26.8189L32.7094 26.8192L32.7097 27.8192ZM32.7102 29.7335L33.3892 30.4676L33.7103 30.1706L33.7102 29.7332L32.7102 29.7335ZM31.054 31.2654L30.375 30.5312L30.0539 30.8282L30.054 31.2656L31.054 31.2654ZM26.1894 33.5638C26.1896 34.4415 26.6489 35.0993 27.2495 35.4937C27.8192 35.8678 28.5145 36.0139 29.1486 35.9975L29.0971 33.9982C28.7769 34.0064 28.5055 33.9258 28.3472 33.8219C28.274 33.7738 28.2381 33.73 28.2205 33.6999C28.2054 33.6742 28.1894 33.6352 28.1894 33.5633L26.1894 33.5638ZM26.1888 31.2667L26.1894 33.5638L28.1894 33.5633L28.1888 31.2662L26.1888 31.2667ZM24.8532 30.47L26.5102 32.0009L27.8674 30.5319L26.2104 29.001L24.8532 30.47ZM24.5313 27.8215L24.5318 29.7357L26.5318 29.7352L26.5312 27.8209L24.5313 27.8215ZM27.3255 26.8207L25.531 26.8212L25.5315 28.8212L27.3261 28.8207L27.3255 26.8207ZM28.3258 27.8204L28.3258 27.8204L26.3258 27.8209L26.3258 27.821L28.3258 27.8204ZM27.3261 28.8207L32.71 28.8192L32.7094 26.8192L27.3255 26.8207L27.3261 28.8207ZM31.7097 27.8195L31.7102 29.7338L33.7102 29.7332L33.7097 27.8189L31.7097 27.8195ZM32.0312 28.9994L30.375 30.5312L31.7331 31.9995L33.3892 30.4676L32.0312 28.9994ZM30.054 31.2656L30.0547 33.5628L32.0547 33.5622L32.054 31.2651L30.054 31.2656ZM30.0547 33.5628C30.0547 33.6347 30.0387 33.6736 30.0237 33.6994C30.0061 33.7294 29.9703 33.7732 29.8971 33.8213C29.739 33.9254 29.4679 34.0061 29.1478 33.9982L29.0979 35.9975C29.7319 36.0134 30.4269 35.8668 30.9962 35.4923C31.5963 35.0976 32.0549 34.4396 32.0547 33.5622L30.0547 33.5628Z" fill="#404660"/>
<path fill-rule="evenodd" clip-rule="evenodd" d="M17.3392 34.9979C16.3848 35.0225 15.406 34.5445 15.4057 33.5636L15.4051 31.2664L13.7481 29.7355L13.7476 27.8212L15.5421 27.8207L15.5421 27.8207L20.926 27.8192L20.9265 29.7335L19.2703 31.2654L19.271 33.5625C19.2712 34.5431 18.2933 35.0216 17.3392 34.9979Z" fill="#F9F9F9"/>
<path d="M15.4057 33.5636L14.4057 33.5638L15.4057 33.5636ZM17.3392 34.9979L17.3641 33.9982L17.3387 33.9975L17.3134 33.9982L17.3392 34.9979ZM15.4051 31.2664L16.4051 31.2662L16.405 30.8288L16.0837 30.5319L15.4051 31.2664ZM13.7481 29.7355L12.7481 29.7357L12.7482 30.1731L13.0695 30.47L13.7481 29.7355ZM13.7476 27.8212L13.7473 26.8212L12.7473 26.8215L12.7476 27.8215L13.7476 27.8212ZM15.5421 27.8207L15.5424 28.8207L16.5424 28.8204L16.5421 27.8204L15.5421 27.8207ZM15.5421 27.8207L15.5418 26.8207L14.5418 26.821L14.5421 27.8209L15.5421 27.8207ZM20.926 27.8192L21.926 27.8189L21.9257 26.8189L20.9257 26.8192L20.926 27.8192ZM20.9265 29.7335L21.6055 30.4676L21.9266 30.1706L21.9265 29.7332L20.9265 29.7335ZM19.2703 31.2654L18.5913 30.5312L18.2702 30.8282L18.2703 31.2656L19.2703 31.2654ZM14.4057 33.5638C14.406 34.4415 14.8652 35.0993 15.4658 35.4937C16.0355 35.8678 16.7308 36.0139 17.3649 35.9975L17.3134 33.9982C16.9932 34.0064 16.7218 33.9258 16.5635 33.8219C16.4903 33.7738 16.4544 33.73 16.4368 33.6999C16.4218 33.6742 16.4057 33.6352 16.4057 33.5633L14.4057 33.5638ZM14.4051 31.2667L14.4057 33.5638L16.4057 33.5633L16.4051 31.2662L14.4051 31.2667ZM13.0695 30.47L14.7265 32.0009L16.0837 30.5319L14.4267 29.001L13.0695 30.47ZM12.7476 27.8215L12.7481 29.7357L14.7481 29.7352L14.7476 27.8209L12.7476 27.8215ZM15.5418 26.8207L13.7473 26.8212L13.7478 28.8212L15.5424 28.8207L15.5418 26.8207ZM16.5421 27.8204L16.5421 27.8204L14.5421 27.8209L14.5421 27.821L16.5421 27.8204ZM15.5424 28.8207L20.9263 28.8192L20.9257 26.8192L15.5418 26.8207L15.5424 28.8207ZM19.926 27.8195L19.9265 29.7338L21.9265 29.7332L21.926 27.8189L19.926 27.8195ZM20.2475 28.9994L18.5913 30.5312L19.9494 31.9995L21.6055 30.4676L20.2475 28.9994ZM18.2703 31.2656L18.271 33.5628L20.271 33.5622L20.2703 31.2651L18.2703 31.2656ZM18.271 33.5628C18.271 33.6347 18.255 33.6736 18.24 33.6994C18.2224 33.7294 18.1866 33.7732 18.1134 33.8213C17.9553 33.9254 17.6842 34.0061 17.3641 33.9982L17.3142 35.9975C17.9482 36.0134 18.6432 35.8668 19.2125 35.4923C19.8126 35.0976 20.2712 34.4396 20.271 33.5622L18.271 33.5628Z" fill="#404660"/>
<path fill-rule="evenodd" clip-rule="evenodd" d="M40.9065 34.9959C39.9521 35.0205 38.9732 34.5425 38.973 33.5616L38.9723 31.2645L37.3153 29.7335L37.3148 27.8192L39.1095 27.8187L39.1095 27.8187L44.4934 27.8173L44.4939 29.7315L42.8377 31.2634L42.8384 33.5605C42.8386 34.5412 41.8606 35.0197 40.9065 34.9959Z" fill="#F9F9F9"/>
<path d="M38.973 33.5616L37.973 33.5619L38.973 33.5616ZM40.9065 34.9959L40.9314 33.9962L40.906 33.9956L40.8807 33.9962L40.9065 34.9959ZM38.9723 31.2645L39.9723 31.2642L39.9722 30.8268L39.651 30.53L38.9723 31.2645ZM37.3153 29.7335L36.3153 29.7338L36.3155 30.1712L36.6367 30.468L37.3153 29.7335ZM37.3148 27.8192L37.3145 26.8192L36.3145 26.8195L36.3148 27.8195L37.3148 27.8192ZM39.1095 27.8187L39.1097 28.8187L40.1097 28.8185L40.1095 27.8185L39.1095 27.8187ZM39.1095 27.8187L39.1092 26.8187L38.1092 26.819L38.1095 27.819L39.1095 27.8187ZM44.4934 27.8173L45.4934 27.817L45.4931 26.817L44.4931 26.8173L44.4934 27.8173ZM44.4939 29.7315L45.1729 30.4656L45.494 30.1686L45.4939 29.7313L44.4939 29.7315ZM42.8377 31.2634L42.1587 30.5293L41.8376 30.8263L41.8377 31.2637L42.8377 31.2634ZM42.8384 33.5605L41.8384 33.5608L42.8384 33.5605ZM37.973 33.5619C37.9732 34.4395 38.4325 35.0974 39.0331 35.4917C39.6028 35.8659 40.2981 36.0119 40.9323 35.9956L40.8807 33.9962C40.5605 34.0045 40.2891 33.9239 40.1308 33.8199C40.0576 33.7718 40.0217 33.728 40.0041 33.698C39.989 33.6722 39.973 33.6332 39.973 33.5613L37.973 33.5619ZM37.9723 31.2648L37.973 33.5619L39.973 33.5613L39.9723 31.2642L37.9723 31.2648ZM36.6367 30.468L38.2937 31.999L39.651 30.53L37.994 28.999L36.6367 30.468ZM36.3148 27.8195L36.3153 29.7338L38.3153 29.7332L38.3148 27.819L36.3148 27.8195ZM39.1092 26.8187L37.3145 26.8192L37.3151 28.8192L39.1097 28.8187L39.1092 26.8187ZM40.1095 27.8185L40.1095 27.8185L38.1095 27.819L38.1095 27.819L40.1095 27.8185ZM39.1097 28.8187L44.4936 28.8173L44.4931 26.8173L39.1092 26.8187L39.1097 28.8187ZM43.4934 27.8175L43.4939 29.7318L45.4939 29.7313L45.4934 27.817L43.4934 27.8175ZM43.8149 28.9974L42.1587 30.5293L43.5167 31.9975L45.1729 30.4656L43.8149 28.9974ZM41.8377 31.2637L41.8384 33.5608L43.8384 33.5603L43.8377 31.2631L41.8377 31.2637ZM41.8384 33.5608C41.8384 33.6327 41.8224 33.6717 41.8073 33.6974C41.7898 33.7275 41.7539 33.7713 41.6808 33.8194C41.5227 33.9234 41.2515 34.0042 40.9314 33.9962L40.8815 35.9956C41.5155 36.0114 42.2105 35.8648 42.7798 35.4904C43.38 35.0956 43.8386 34.4376 43.8384 33.5603L41.8384 33.5608Z" fill="#404660"/>
<path d="M32.4978 22V20.66H29.4278V19.72L32.7178 14.95H33.7778V19.6H34.7678V20.66H33.7778V22H32.4978ZM32.4978 19.6V16.91L30.6578 19.6H32.4978ZM38.0039 22.1C37.1706 22.1 36.5339 21.7867 36.0939 21.16C35.6539 20.5267 35.4339 19.6267 35.4339 18.46C35.4339 17.28 35.6539 16.3833 36.0939 15.77C36.5339 15.1567 37.1706 14.85 38.0039 14.85C38.8439 14.85 39.4806 15.1567 39.9139 15.77C40.3539 16.3833 40.5739 17.2767 40.5739 18.45C40.5739 19.6233 40.3539 20.5267 39.9139 21.16C39.4739 21.7867 38.8372 22.1 38.0039 22.1ZM38.0039 21.05C38.4572 21.05 38.7906 20.8433 39.0039 20.43C39.2239 20.01 39.3339 19.35 39.3339 18.45C39.3339 17.5567 39.2239 16.91 39.0039 16.51C38.7906 16.1033 38.4572 15.9 38.0039 15.9C37.5572 15.9 37.2239 16.1033 37.0039 16.51C36.7839 16.91 36.6739 17.5567 36.6739 18.45C36.6739 19.35 36.7839 20.01 37.0039 20.43C37.2239 20.8433 37.5572 21.05 38.0039 21.05ZM44 22.1C43.1667 22.1 42.53 21.7867 42.09 21.16C41.65 20.5267 41.43 19.6267 41.43 18.46C41.43 17.28 41.65 16.3833 42.09 15.77C42.53 15.1567 43.1667 14.85 44 14.85C44.84 14.85 45.4767 15.1567 45.91 15.77C46.35 16.3833 46.57 17.2767 46.57 18.45C46.57 19.6233 46.35 20.5267 45.91 21.16C45.47 21.7867 44.8333 22.1 44 22.1ZM44 21.05C44.4533 21.05 44.7867 20.8433 45 20.43C45.22 20.01 45.33 19.35 45.33 18.45C45.33 17.5567 45.22 16.91 45 16.51C44.7867 16.1033 44.4533 15.9 44 15.9C43.5533 15.9 43.22 16.1033 43 16.51C42.78 16.91 42.67 17.5567 42.67 18.45C42.67 19.35 42.78 20.01 43 20.43C43.22 20.8433 43.5533 21.05 44 21.05ZM49.9961 22.1C49.1628 22.1 48.5261 21.7867 48.0861 21.16C47.6461 20.5267 47.4261 19.6267 47.4261 18.46C47.4261 17.28 47.6461 16.3833 48.0861 15.77C48.5261 15.1567 49.1628 14.85 49.9961 14.85C50.8361 14.85 51.4728 15.1567 51.9061 15.77C52.3461 16.3833 52.5661 17.2767 52.5661 18.45C52.5661 19.6233 52.3461 20.5267 51.9061 21.16C51.4661 21.7867 50.8294 22.1 49.9961 22.1ZM49.9961 21.05C50.4494 21.05 50.7828 20.8433 50.9961 20.43C51.2161 20.01 51.3261 19.35 51.3261 18.45C51.3261 17.5567 51.2161 16.91 50.9961 16.51C50.7828 16.1033 50.4494 15.9 49.9961 15.9C49.5494 15.9 49.2161 16.1033 48.9961 16.51C48.7761 16.91 48.6661 17.5567 48.6661 18.45C48.6661 19.35 48.7761 20.01 48.9961 20.43C49.2161 20.8433 49.5494 21.05 49.9961 21.05Z" fill="#404660"/>
</svg>
