<svg width="53" height="43" viewBox="0 0 53 43" fill="none" xmlns="http://www.w3.org/2000/svg">
<mask id="path-1-inside-1_103_119" fill="white">
<rect y="4.65527" width="53" height="32.8966" rx="1"/>
</mask>
<rect y="4.65527" width="53" height="32.8966" rx="1" stroke="#404660" stroke-width="6" mask="url(#path-1-inside-1_103_119)"/>
<mask id="path-2-inside-2_103_119" fill="white">
<path fill-rule="evenodd" clip-rule="evenodd" d="M53 11.0519H0V14.7256C0.150782 14.7133 0.303137 14.707 0.456856 14.707C3.73724 14.707 6.39651 17.5708 6.39651 21.1036C6.39651 24.6363 3.73724 27.5001 0.456856 27.5001C0.303137 27.5001 0.150782 27.4938 0 27.4815V31.1553H53V11.0519Z"/>
</mask>
<path fill-rule="evenodd" clip-rule="evenodd" d="M53 11.0519H0V14.7256C0.150782 14.7133 0.303137 14.707 0.456856 14.707C3.73724 14.707 6.39651 17.5708 6.39651 21.1036C6.39651 24.6363 3.73724 27.5001 0.456856 27.5001C0.303137 27.5001 0.150782 27.4938 0 27.4815V31.1553H53V11.0519Z" fill="#F9F9F9"/>
<path d="M0 11.0519V9.05188H-2V11.0519H0ZM53 11.0519H55V9.05188H53V11.0519ZM0 14.7256H-2V16.8962L0.163283 16.719L0 14.7256ZM0 27.4815L0.163292 25.4881L-2 25.3109V27.4815H0ZM0 31.1553H-2V33.1553H0V31.1553ZM53 31.1553V33.1553H55V31.1553H53ZM0 13.0519H53V9.05188H0V13.0519ZM2 14.7256V11.0519H-2V14.7256H2ZM0.163283 16.719C0.259833 16.7111 0.357715 16.707 0.456856 16.707V12.707C0.248559 12.707 0.0417309 12.7155 -0.163283 12.7323L0.163283 16.719ZM0.456856 16.707C2.49567 16.707 4.39651 18.5332 4.39651 21.1036H8.39651C8.39651 16.6084 4.9788 12.707 0.456856 12.707V16.707ZM4.39651 21.1036C4.39651 23.6739 2.49567 25.5001 0.456856 25.5001V29.5001C4.9788 29.5001 8.39651 25.5987 8.39651 21.1036H4.39651ZM0.456856 25.5001C0.357713 25.5001 0.259834 25.496 0.163292 25.4881L-0.163292 29.4748C0.0417299 29.4916 0.248561 29.5001 0.456856 29.5001V25.5001ZM2 31.1553V27.4815H-2V31.1553H2ZM53 29.1553H0V33.1553H53V29.1553ZM51 11.0519V31.1553H55V11.0519H51Z" fill="#404660" mask="url(#path-2-inside-2_103_119)"/>
<path d="M7.3103 39.7449V33.8966H12.7931V35.846L11.1061 37.4056V39.7449C11.1061 41.6943 7.3103 41.6943 7.3103 39.7449Z" fill="#F9F9F9" stroke="#404660" stroke-width="2" stroke-linecap="round"/>
<path d="M47.5172 39.7449V33.8966H42.0345V35.846L43.7215 37.4056V39.7449C43.7215 41.6943 47.5172 41.6943 47.5172 39.7449Z" fill="#F9F9F9" stroke="#404660" stroke-width="2" stroke-linecap="round"/>
<path fill-rule="evenodd" clip-rule="evenodd" d="M19.1897 33.8966H22.8448H24.6724V35.846L22.9854 37.4056V39.7449C22.9854 40.7437 21.989 41.2307 21.0172 41.2061C20.0455 41.2307 19.0491 40.7437 19.0491 39.7449V37.4056L17.3621 35.846V33.8966H19.1897Z" fill="#F9F9F9"/>
<path d="M24.6724 33.8966H25.6724V32.8966H24.6724V33.8966ZM24.6724 35.846L25.3512 36.5803L25.6724 36.2834V35.846H24.6724ZM22.9854 37.4056L22.3066 36.6713L21.9854 36.9682V37.4056H22.9854ZM21.0172 41.2061L21.0426 40.2064L21.0172 40.2057L20.9919 40.2064L21.0172 41.2061ZM19.0491 39.7449H18.0491H19.0491ZM19.0491 37.4056H20.0491V36.9682L19.7279 36.6713L19.0491 37.4056ZM17.3621 35.846H16.3621V36.2834L16.6832 36.5803L17.3621 35.846ZM17.3621 33.8966V32.8966H16.3621V33.8966H17.3621ZM19.1897 34.8966H22.8448V32.8966H19.1897V34.8966ZM22.8448 34.8966H24.6724V32.8966H22.8448V34.8966ZM23.6724 33.8966V35.846H25.6724V33.8966H23.6724ZM23.9936 35.1117L22.3066 36.6713L23.6642 38.1399L25.3512 36.5803L23.9936 35.1117ZM21.9854 37.4056V39.7449H23.9854V37.4056H21.9854ZM21.9854 39.7449C21.9854 39.8571 21.9507 39.9354 21.8165 40.0236C21.6516 40.1319 21.3715 40.2147 21.0426 40.2064L20.9919 42.2057C21.6347 42.2221 22.3387 42.0736 22.9149 41.695C23.522 41.296 23.9854 40.6314 23.9854 39.7449H21.9854ZM18.0491 39.7449C18.0491 40.6314 18.5125 41.296 19.1195 41.695C19.6958 42.0736 20.3998 42.2221 21.0426 42.2057L20.9919 40.2064C20.6629 40.2147 20.3828 40.1319 20.2179 40.0236C20.0838 39.9354 20.0491 39.8571 20.0491 39.7449L18.0491 39.7449ZM18.0491 37.4056V39.7449H20.0491V37.4056H18.0491ZM16.6832 36.5803L18.3702 38.1399L19.7279 36.6713L18.0409 35.1117L16.6832 36.5803ZM16.3621 33.8966V35.846H18.3621V33.8966H16.3621ZM19.1897 32.8966H17.3621V34.8966H19.1897V32.8966Z" fill="#404660"/>
<path fill-rule="evenodd" clip-rule="evenodd" d="M31.9827 33.8966H35.6379H37.4655V35.846L35.7785 37.4056V39.7449C35.7785 40.7437 34.7821 41.2307 33.8103 41.2061C32.8385 41.2307 31.8422 40.7437 31.8422 39.7449V37.4056L30.1552 35.846V33.8966H31.9827Z" fill="#F9F9F9"/>
<path d="M37.4655 33.8966H38.4655V32.8966H37.4655V33.8966ZM37.4655 35.846L38.1443 36.5803L38.4655 36.2834V35.846H37.4655ZM35.7785 37.4056L35.0997 36.6713L34.7785 36.9682V37.4056H35.7785ZM33.8103 41.2061L33.8357 40.2064L33.8103 40.2057L33.785 40.2064L33.8103 41.2061ZM31.8422 39.7449H30.8422H31.8422ZM31.8422 37.4056H32.8422V36.9682L32.521 36.6713L31.8422 37.4056ZM30.1552 35.846H29.1552V36.2834L29.4763 36.5803L30.1552 35.846ZM30.1552 33.8966V32.8966H29.1552V33.8966H30.1552ZM31.9827 34.8966H35.6379V32.8966H31.9827V34.8966ZM35.6379 34.8966H37.4655V32.8966H35.6379V34.8966ZM36.4655 33.8966V35.846H38.4655V33.8966H36.4655ZM36.7867 35.1117L35.0997 36.6713L36.4573 38.1399L38.1443 36.5803L36.7867 35.1117ZM34.7785 37.4056V39.7449H36.7785V37.4056H34.7785ZM34.7785 39.7449C34.7785 39.8571 34.7438 39.9354 34.6096 40.0236C34.4447 40.1319 34.1646 40.2147 33.8357 40.2064L33.785 42.2057C34.4278 42.2221 35.1318 42.0736 35.708 41.695C36.3151 41.296 36.7785 40.6314 36.7785 39.7449H34.7785ZM30.8422 39.7449C30.8422 40.6314 31.3056 41.296 31.9126 41.695C32.4889 42.0736 33.1928 42.2221 33.8357 42.2057L33.785 40.2064C33.456 40.2147 33.1759 40.1319 33.011 40.0236C32.8769 39.9354 32.8422 39.8571 32.8422 39.7449L30.8422 39.7449ZM30.8422 37.4056V39.7449H32.8422V37.4056H30.8422ZM29.4763 36.5803L31.1633 38.1399L32.521 36.6713L30.834 35.1117L29.4763 36.5803ZM29.1552 33.8966V35.846H31.1552V33.8966H29.1552ZM31.9827 32.8966H30.1552V34.8966H31.9827V32.8966Z" fill="#404660"/>
<path d="M47.5176 2.46203L47.5192 8.3103L42.0364 8.3118L42.0359 6.36238L43.7225 4.80237L43.7218 2.46306C43.7213 0.513639 47.517 0.512602 47.5176 2.46203Z" fill="#F9F9F9" stroke="#404660" stroke-width="2" stroke-linecap="round"/>
<path d="M7.31078 2.47289L7.31238 8.32117L12.7951 8.31967L12.7946 6.37024L11.1072 4.81117L11.1065 2.47185C11.106 0.52243 7.31025 0.523467 7.31078 2.47289Z" fill="#F9F9F9" stroke="#404660" stroke-width="2" stroke-linecap="round"/>
<path fill-rule="evenodd" clip-rule="evenodd" d="M31.9848 8.31419L31.9848 8.31436L37.4675 8.31287L37.467 6.36344L35.7796 4.80436L35.7789 2.46505C35.7787 1.46747 34.7845 0.980649 33.8139 1.00432C32.841 0.978661 31.8423 1.46596 31.8426 2.46595L31.8432 4.80526L30.1566 6.36526L30.1572 8.31469L31.9848 8.31419Z" fill="#F9F9F9"/>
<path d="M31.9848 8.31419L32.9848 8.31391L32.9845 7.31391L31.9845 7.31419L31.9848 8.31419ZM31.9848 8.31436L30.9848 8.31464L30.985 9.31464L31.985 9.31436L31.9848 8.31436ZM37.4675 8.31287L37.4678 9.31287L38.4678 9.31259L38.4675 8.31259L37.4675 8.31287ZM37.467 6.36344L38.467 6.36317L38.4669 5.92578L38.1456 5.62895L37.467 6.36344ZM35.7796 4.80436L34.7796 4.80464L34.7797 5.24203L35.1009 5.53885L35.7796 4.80436ZM35.7789 2.46505L36.7789 2.46478L36.7789 2.46478L35.7789 2.46505ZM33.8139 1.00432L33.7875 2.00398L33.8129 2.00465L33.8382 2.00403L33.8139 1.00432ZM31.8432 4.80526L32.5222 5.53938L32.8433 5.24238L32.8432 4.80499L31.8432 4.80526ZM30.1566 6.36526L29.4776 5.63114L29.1565 5.92814L29.1566 6.36553L30.1566 6.36526ZM30.1572 8.31469L29.1572 8.31496L29.1574 9.31496L30.1574 9.31469L30.1572 8.31469ZM30.9848 8.31446L30.9848 8.31464L32.9848 8.31409L32.9848 8.31391L30.9848 8.31446ZM31.985 9.31436L37.4678 9.31287L37.4673 7.31287L31.9845 7.31436L31.985 9.31436ZM38.4675 8.31259L38.467 6.36317L36.467 6.36371L36.4675 8.31314L38.4675 8.31259ZM38.1456 5.62895L36.4582 4.06987L35.1009 5.53885L36.7884 7.09793L38.1456 5.62895ZM36.7796 4.80409L36.7789 2.46478L34.7789 2.46532L34.7796 4.80464L36.7796 4.80409ZM36.7789 2.46478C36.7787 1.57943 36.3162 0.915339 35.71 0.516388C35.1346 0.137681 34.4316 -0.0110403 33.7895 0.00462182L33.8382 2.00403C34.1668 1.99601 34.4462 2.07886 34.6105 2.18704C34.7442 2.27498 34.7789 2.35309 34.7789 2.46532L36.7789 2.46478ZM32.8426 2.46568C32.8425 2.35338 32.8773 2.27492 33.0119 2.18658C33.1774 2.078 33.4582 1.99529 33.7875 2.00398L33.8402 0.00467281C33.1966 -0.0123051 32.4917 0.1358 31.9146 0.514458C31.3068 0.913342 30.8423 1.57853 30.8426 2.46622L32.8426 2.46568ZM32.8432 4.80499L32.8426 2.46568L30.8426 2.46622L30.8432 4.80553L32.8432 4.80499ZM30.8357 7.09938L32.5222 5.53938L31.1642 4.07114L29.4776 5.63114L30.8357 7.09938ZM31.1572 8.31441L31.1566 6.36499L29.1566 6.36553L29.1572 8.31496L31.1572 8.31441ZM31.9845 7.31419L30.1569 7.31469L30.1574 9.31469L31.985 9.31419L31.9845 7.31419Z" fill="#404660"/>
<path fill-rule="evenodd" clip-rule="evenodd" d="M21.0161 1.00817C21.9883 0.982829 22.9856 1.46961 22.9858 2.46878L22.9865 4.80809L24.6739 6.36717L24.6744 8.31659L22.8468 8.31709L22.8468 8.31715L17.3641 8.31865L17.3635 6.36922L19.0501 4.80922L19.0495 2.46991C19.0492 1.47151 20.0447 0.98417 21.0161 1.00817Z" fill="#F9F9F9"/>
<path d="M22.9858 2.46878L23.9858 2.46851L23.9858 2.46851L22.9858 2.46878ZM21.0161 1.00817L20.9914 2.00786L21.0168 2.00849L21.0422 2.00783L21.0161 1.00817ZM22.9865 4.80809L21.9865 4.80836L21.9866 5.24575L22.3079 5.54258L22.9865 4.80809ZM24.6739 6.36717L25.6739 6.36689L25.6738 5.9295L25.3525 5.63268L24.6739 6.36717ZM24.6744 8.31659L24.6747 9.31659L25.6747 9.31632L25.6744 8.31632L24.6744 8.31659ZM22.8468 8.31709L22.8466 7.31709L21.8466 7.31737L21.8468 8.31737L22.8468 8.31709ZM22.8468 8.31715L22.8471 9.31715L23.8471 9.31688L23.8468 8.31688L22.8468 8.31715ZM17.3641 8.31865L16.3641 8.31892L16.3644 9.31892L17.3644 9.31865L17.3641 8.31865ZM17.3635 6.36922L16.6845 5.6351L16.3634 5.9321L16.3635 6.3695L17.3635 6.36922ZM19.0501 4.80922L19.7291 5.54334L20.0502 5.24634L20.0501 4.80895L19.0501 4.80922ZM19.0495 2.46991L18.0495 2.47018L19.0495 2.46991ZM23.9858 2.46851C23.9856 1.58161 23.5216 0.91696 22.9141 0.518271C22.3375 0.139805 21.6332 -0.00825506 20.9901 0.00850786L21.0422 2.00783C21.3712 1.99925 21.6516 2.08191 21.8167 2.19029C21.951 2.27845 21.9858 2.35677 21.9858 2.46905L23.9858 2.46851ZM23.9865 4.80782L23.9858 2.46851L21.9858 2.46905L21.9865 4.80836L23.9865 4.80782ZM25.3525 5.63268L23.6651 4.0736L22.3079 5.54258L23.9953 7.10166L25.3525 5.63268ZM25.6744 8.31632L25.6739 6.36689L23.6739 6.36744L23.6744 8.31687L25.6744 8.31632ZM22.8471 9.31709L24.6747 9.31659L24.6742 7.31659L22.8466 7.31709L22.8471 9.31709ZM21.8468 8.31737L21.8468 8.31742L23.8468 8.31688L23.8468 8.31682L21.8468 8.31737ZM22.8466 7.31715L17.3638 7.31865L17.3644 9.31865L22.8471 9.31715L22.8466 7.31715ZM18.3641 8.31837L18.3635 6.36895L16.3635 6.3695L16.3641 8.31892L18.3641 8.31837ZM18.0426 7.10334L19.7291 5.54334L18.3711 4.0751L16.6845 5.6351L18.0426 7.10334ZM20.0501 4.80895L20.0495 2.46964L18.0495 2.47018L18.0501 4.80949L20.0501 4.80895ZM20.0495 2.46964C20.0495 2.35738 20.0842 2.27914 20.2181 2.19102C20.3828 2.08265 20.6626 1.99974 20.9914 2.00786L21.0408 0.00847301C20.3982 -0.00740179 19.6946 0.141364 19.1187 0.520263C18.5121 0.919411 18.0492 1.58404 18.0495 2.47018L20.0495 2.46964Z" fill="#404660"/>
</svg>
