<svg width="53" height="32" viewBox="0 0 53 32" fill="none" xmlns="http://www.w3.org/2000/svg">
<mask id="path-1-inside-1_103_9" fill="white">
<rect y="1" width="52" height="29.6" rx="1"/>
</mask>
<rect y="1" width="52" height="29.6" rx="1" stroke="#404660" stroke-width="4.4" mask="url(#path-1-inside-1_103_9)"/>
<path d="M51.4988 2.02586L51.5 6.12427L47.2918 6.12532L47.2914 4.75918L48.5859 3.66595L48.5854 2.02658C48.585 0.660446 51.4984 0.659719 51.4988 2.02586Z" fill="#F9F9F9" stroke="#404660" stroke-linecap="round"/>
<path d="M0.698725 2.02586L0.699951 6.12427L4.90814 6.12322L4.90773 4.75708L3.61258 3.66449L3.61209 2.02513C3.61168 0.658993 0.698316 0.65972 0.698725 2.02586Z" fill="#F9F9F9" stroke="#404660" stroke-linecap="round"/>
<path fill-rule="evenodd" clip-rule="evenodd" d="M16.7918 6.12496L16.7918 6.12532L21 6.12427L20.9996 4.75813L19.7044 3.66554L19.7039 2.02618C19.7037 1.3287 18.9442 0.987507 18.2009 1.00241C17.4525 0.982749 16.6826 1.3242 16.6828 2.02657L16.6833 3.66594L15.3888 4.75917L15.3892 6.1253L16.7918 6.12496Z" fill="#F9F9F9"/>
<path d="M16.7918 6.12496L17.2918 6.12483L17.2917 5.62483L16.7917 5.62496L16.7918 6.12496ZM16.7918 6.12532L16.2918 6.12544L16.292 6.62544L16.792 6.62532L16.7918 6.12532ZM21 6.12427L21.0001 6.62427L21.5001 6.62414L21.5 6.12414L21 6.12427ZM20.9996 4.75813L21.4996 4.75801L21.4995 4.52573L21.322 4.37596L20.9996 4.75813ZM19.7044 3.66554L19.2044 3.66567L19.2045 3.89794L19.382 4.04771L19.7044 3.66554ZM18.2009 1.00241L18.1878 1.50223L18.1993 1.50254L18.2109 1.50231L18.2009 1.00241ZM16.6833 3.66594L17.0059 4.04794L17.1833 3.89808L17.1833 3.66581L16.6833 3.66594ZM15.3888 4.75917L15.0661 4.37716L14.8887 4.52702L14.8888 4.75929L15.3888 4.75917ZM15.3892 6.1253L14.8892 6.12543L14.8893 6.62543L15.3893 6.6253L15.3892 6.1253ZM16.2918 6.12508L16.2918 6.12544L17.2918 6.12519L17.2918 6.12483L16.2918 6.12508ZM16.792 6.62532L21.0001 6.62427L20.9999 5.62427L16.7917 5.62532L16.792 6.62532ZM21.5 6.12414L21.4996 4.75801L20.4996 4.75826L20.5 6.12439L21.5 6.12414ZM21.322 4.37596L20.0268 3.28338L19.382 4.04771L20.6772 5.1403L21.322 4.37596ZM20.2044 3.66542L20.2039 2.02605L19.2039 2.0263L19.2044 3.66567L20.2044 3.66542ZM20.2039 2.02605C20.2038 1.46294 19.8852 1.05784 19.4894 0.819029C19.107 0.588365 18.6325 0.493656 18.1908 0.502508L18.2109 1.50231C18.5126 1.49626 18.7895 1.5647 18.9728 1.67527C19.1426 1.7777 19.2039 1.89194 19.2039 2.0263L20.2039 2.02605ZM17.1828 2.02645C17.1827 1.89145 17.2446 1.77617 17.4174 1.67308C17.6036 1.56196 17.8841 1.49426 18.1878 1.50223L18.214 0.50258C17.7693 0.490899 17.2907 0.584094 16.9049 0.814382C16.5056 1.05269 16.1826 1.45932 16.1828 2.0267L17.1828 2.02645ZM17.1833 3.66581L17.1828 2.02645L16.1828 2.0267L16.1833 3.66606L17.1833 3.66581ZM15.7114 5.14118L17.0059 4.04794L16.3606 3.28393L15.0661 4.37716L15.7114 5.14118ZM15.8892 6.12518L15.8888 4.75904L14.8888 4.75929L14.8892 6.12543L15.8892 6.12518ZM16.7917 5.62496L15.389 5.62531L15.3893 6.6253L16.792 6.62496L16.7917 5.62496Z" fill="#404660"/>
<path fill-rule="evenodd" clip-rule="evenodd" d="M8.79181 6.12508L8.79181 6.12544L13 6.12439L12.9996 4.75825L11.7044 3.66567L11.7039 2.0263C11.7037 1.3288 10.9442 0.987607 10.2008 1.00253C9.45244 0.982848 8.68241 1.3243 8.68262 2.02669L8.68311 3.66606L7.38861 4.75929L7.38902 6.12543L8.79181 6.12508Z" fill="#F9F9F9"/>
<path d="M8.79181 6.12508L9.29181 6.12495L9.29166 5.62495L8.79166 5.62508L8.79181 6.12508ZM8.79181 6.12544L8.29181 6.12556L8.29196 6.62556L8.79196 6.62544L8.79181 6.12544ZM13 6.12439L13.0001 6.62439L13.5001 6.62426L13.5 6.12426L13 6.12439ZM12.9996 4.75825L13.4996 4.75813L13.4995 4.52586L13.322 4.37608L12.9996 4.75825ZM11.7044 3.66567L11.2044 3.66579L11.2045 3.89806L11.382 4.04783L11.7044 3.66567ZM11.7039 2.0263L12.2039 2.02618L11.7039 2.0263ZM10.2008 1.00253L10.1877 1.50236L10.1993 1.50266L10.2109 1.50243L10.2008 1.00253ZM8.68262 2.02669L9.18262 2.02657L8.68262 2.02669ZM8.68311 3.66606L9.00573 4.04806L9.18318 3.8982L9.18311 3.66593L8.68311 3.66606ZM7.38861 4.75929L7.06599 4.37728L6.88854 4.52714L6.88861 4.75941L7.38861 4.75929ZM7.38902 6.12543L6.88902 6.12555L6.88917 6.62555L7.38917 6.62543L7.38902 6.12543ZM8.29181 6.1252L8.29181 6.12556L9.29181 6.12531L9.29181 6.12495L8.29181 6.1252ZM8.79196 6.62544L13.0001 6.62439L12.9999 5.62439L8.79166 5.62544L8.79196 6.62544ZM13.5 6.12426L13.4996 4.75813L12.4996 4.75838L12.5 6.12451L13.5 6.12426ZM13.322 4.37608L12.0268 3.2835L11.382 4.04783L12.6772 5.14042L13.322 4.37608ZM12.2044 3.66554L12.2039 2.02618L11.2039 2.02643L11.2044 3.66579L12.2044 3.66554ZM12.2039 2.02618C12.2038 1.46305 11.8852 1.05794 11.4893 0.819127C11.1069 0.588466 10.6324 0.493765 10.1907 0.502632L10.2109 1.50243C10.5126 1.49637 10.7895 1.56481 10.9728 1.67539C11.1426 1.77782 11.2039 1.89206 11.2039 2.02643L12.2039 2.02618ZM9.18262 2.02657C9.18258 1.89157 9.2445 1.77629 9.41725 1.67319C9.60344 1.56207 9.88398 1.49437 10.1877 1.50236L10.2139 0.502705C9.76926 0.491009 9.2906 0.584196 8.90474 0.814481C8.50544 1.05279 8.18245 1.45942 8.18262 2.02682L9.18262 2.02657ZM9.18311 3.66593L9.18262 2.02657L8.18262 2.02682L8.18311 3.66618L9.18311 3.66593ZM7.71123 5.1413L9.00573 4.04806L8.36049 3.28405L7.06599 4.37728L7.71123 5.1413ZM7.88902 6.1253L7.88861 4.75917L6.88861 4.75941L6.88902 6.12555L7.88902 6.1253ZM8.79166 5.62508L7.38887 5.62543L7.38917 6.62543L8.79196 6.62508L8.79166 5.62508Z" fill="#404660"/>
<path fill-rule="evenodd" clip-rule="evenodd" d="M32.7918 6.12496L32.7918 6.12532L37 6.12427L36.9996 4.75813L35.7044 3.66554L35.7039 2.02618C35.7037 1.32867 34.9442 0.987481 34.2008 1.00241C33.4524 0.982729 32.6824 1.32418 32.6826 2.02657L32.6831 3.66594L31.3886 4.75917L31.389 6.1253L32.7918 6.12496Z" fill="#F9F9F9"/>
<path d="M32.7918 6.12496L33.2918 6.12483L33.2917 5.62483L32.7917 5.62496L32.7918 6.12496ZM32.7918 6.12532L32.2918 6.12544L32.292 6.62544L32.792 6.62532L32.7918 6.12532ZM37 6.12427L37.0001 6.62427L37.5001 6.62414L37.5 6.12414L37 6.12427ZM36.9996 4.75813L37.4996 4.75801L37.4995 4.52573L37.322 4.37596L36.9996 4.75813ZM35.7044 3.66554L35.2044 3.66567L35.2045 3.89794L35.382 4.04771L35.7044 3.66554ZM35.7039 2.02618L35.2039 2.0263L35.7039 2.02618ZM34.2008 1.00241L34.1877 1.50224L34.1993 1.50254L34.2108 1.50231L34.2008 1.00241ZM32.6826 2.02657L32.1826 2.0267L32.6826 2.02657ZM32.6831 3.66594L33.0057 4.04794L33.1832 3.89808L33.1831 3.66581L32.6831 3.66594ZM31.3886 4.75917L31.066 4.37716L30.8885 4.52702L30.8886 4.75929L31.3886 4.75917ZM31.389 6.1253L30.889 6.12543L30.8892 6.62543L31.3892 6.6253L31.389 6.1253ZM32.2918 6.12508L32.2918 6.12544L33.2918 6.12519L33.2918 6.12483L32.2918 6.12508ZM32.792 6.62532L37.0001 6.62427L36.9999 5.62427L32.7917 5.62532L32.792 6.62532ZM37.5 6.12414L37.4996 4.75801L36.4996 4.75826L36.5 6.12439L37.5 6.12414ZM37.322 4.37596L36.0268 3.28338L35.382 4.04771L36.6772 5.1403L37.322 4.37596ZM36.2044 3.66542L36.2039 2.02605L35.2039 2.0263L35.2044 3.66567L36.2044 3.66542ZM36.2039 2.02605C36.2038 1.46292 35.8852 1.05781 35.4893 0.819001C35.1069 0.58834 34.6324 0.49364 34.1907 0.50251L34.2108 1.50231C34.5126 1.49625 34.7895 1.56468 34.9728 1.67526C35.1426 1.77769 35.2039 1.89193 35.2039 2.0263L36.2039 2.02605ZM33.1826 2.02645C33.1826 1.89145 33.2445 1.77617 33.4172 1.67307C33.6034 1.56195 33.884 1.49425 34.1877 1.50224L34.2139 0.502582C33.7692 0.490888 33.2906 0.584076 32.9047 0.814362C32.5054 1.05267 32.1825 1.45931 32.1826 2.0267L33.1826 2.02645ZM33.1831 3.66581L33.1826 2.02645L32.1826 2.0267L32.1831 3.66606L33.1831 3.66581ZM31.7112 5.14118L33.0057 4.04794L32.3605 3.28393L31.066 4.37716L31.7112 5.14118ZM31.889 6.12518L31.8886 4.75904L30.8886 4.75929L30.889 6.12543L31.889 6.12518ZM32.7917 5.62496L31.3889 5.6253L31.3892 6.6253L32.792 6.62496L32.7917 5.62496Z" fill="#404660"/>
<path fill-rule="evenodd" clip-rule="evenodd" d="M40.7918 6.12496L40.7918 6.12532L45 6.12427L44.9996 4.75813L43.7044 3.66554L43.7039 2.02618C43.7037 1.32867 42.9442 0.987481 42.2008 1.00241C41.4524 0.982729 40.6824 1.32418 40.6826 2.02657L40.6831 3.66594L39.3886 4.75917L39.389 6.1253L40.7918 6.12496Z" fill="#F9F9F9"/>
<path d="M40.7918 6.12496L41.2918 6.12483L41.2917 5.62483L40.7917 5.62496L40.7918 6.12496ZM40.7918 6.12532L40.2918 6.12544L40.292 6.62544L40.792 6.62532L40.7918 6.12532ZM45 6.12427L45.0001 6.62427L45.5001 6.62414L45.5 6.12414L45 6.12427ZM44.9996 4.75813L45.4996 4.75801L45.4995 4.52573L45.322 4.37596L44.9996 4.75813ZM43.7044 3.66554L43.2044 3.66567L43.2045 3.89794L43.382 4.04771L43.7044 3.66554ZM43.7039 2.02618L44.2039 2.02605L43.7039 2.02618ZM42.2008 1.00241L42.1877 1.50224L42.1993 1.50254L42.2108 1.50231L42.2008 1.00241ZM40.6826 2.02657L41.1826 2.02645L40.6826 2.02657ZM40.6831 3.66594L41.0057 4.04794L41.1832 3.89808L41.1831 3.66581L40.6831 3.66594ZM39.3886 4.75917L39.066 4.37716L38.8885 4.52702L38.8886 4.75929L39.3886 4.75917ZM39.389 6.1253L38.889 6.12543L38.8892 6.62543L39.3892 6.6253L39.389 6.1253ZM40.2918 6.12508L40.2918 6.12544L41.2918 6.12519L41.2918 6.12483L40.2918 6.12508ZM40.792 6.62532L45.0001 6.62427L44.9999 5.62427L40.7917 5.62532L40.792 6.62532ZM45.5 6.12414L45.4996 4.75801L44.4996 4.75826L44.5 6.12439L45.5 6.12414ZM45.322 4.37596L44.0268 3.28338L43.382 4.04771L44.6772 5.1403L45.322 4.37596ZM44.2044 3.66542L44.2039 2.02605L43.2039 2.0263L43.2044 3.66567L44.2044 3.66542ZM44.2039 2.02605C44.2038 1.46292 43.8852 1.05781 43.4893 0.819001C43.1069 0.58834 42.6324 0.49364 42.1907 0.50251L42.2108 1.50231C42.5126 1.49625 42.7895 1.56468 42.9728 1.67526C43.1426 1.77769 43.2039 1.89193 43.2039 2.0263L44.2039 2.02605ZM41.1826 2.02645C41.1826 1.89145 41.2445 1.77617 41.4172 1.67307C41.6034 1.56195 41.884 1.49425 42.1877 1.50224L42.2139 0.502582C41.7692 0.490888 41.2906 0.584076 40.9047 0.814362C40.5054 1.05267 40.1825 1.45931 40.1826 2.0267L41.1826 2.02645ZM41.1831 3.66581L41.1826 2.02645L40.1826 2.0267L40.1831 3.66606L41.1831 3.66581ZM39.7112 5.14118L41.0057 4.04794L40.3605 3.28393L39.066 4.37716L39.7112 5.14118ZM39.889 6.12518L39.8886 4.75904L38.8886 4.75929L38.889 6.12543L39.889 6.12518ZM40.7917 5.62496L39.3889 5.6253L39.3892 6.6253L40.792 6.62496L40.7917 5.62496Z" fill="#404660"/>
<path fill-rule="evenodd" clip-rule="evenodd" d="M24.7918 6.12496L24.7918 6.12532L29 6.12427L28.9996 4.75813L27.7044 3.66554L27.7039 2.02618C27.7037 1.32865 26.9441 0.987457 26.2007 1.00241C25.4523 0.982706 24.6823 1.32416 24.6825 2.02657L24.683 3.66594L23.3885 4.75917L23.3889 6.1253L24.7918 6.12496Z" fill="#F9F9F9"/>
<path d="M24.7918 6.12496L25.2918 6.12483L25.2917 5.62483L24.7917 5.62496L24.7918 6.12496ZM24.7918 6.12532L24.2918 6.12544L24.292 6.62544L24.792 6.62532L24.7918 6.12532ZM29 6.12427L29.0001 6.62427L29.5001 6.62414L29.5 6.12414L29 6.12427ZM28.9996 4.75813L29.4996 4.75801L29.4995 4.52573L29.322 4.37596L28.9996 4.75813ZM27.7044 3.66554L27.2044 3.66567L27.2045 3.89794L27.382 4.04771L27.7044 3.66554ZM27.7039 2.02618L28.2039 2.02605L27.7039 2.02618ZM26.2007 1.00241L26.1876 1.50224L26.1992 1.50254L26.2108 1.50231L26.2007 1.00241ZM24.6825 2.02657L24.1825 2.0267L24.6825 2.02657ZM24.683 3.66594L25.0056 4.04794L25.183 3.89808L25.183 3.66581L24.683 3.66594ZM23.3885 4.75917L23.0658 4.37716L22.8884 4.52702L22.8885 4.75929L23.3885 4.75917ZM23.3889 6.1253L22.8889 6.12543L22.889 6.62543L23.389 6.6253L23.3889 6.1253ZM24.2918 6.12508L24.2918 6.12544L25.2918 6.12519L25.2918 6.12483L24.2918 6.12508ZM24.792 6.62532L29.0001 6.62427L28.9999 5.62427L24.7917 5.62532L24.792 6.62532ZM29.5 6.12414L29.4996 4.75801L28.4996 4.75826L28.5 6.12439L29.5 6.12414ZM29.322 4.37596L28.0268 3.28338L27.382 4.04771L28.6772 5.1403L29.322 4.37596ZM28.2044 3.66542L28.2039 2.02605L27.2039 2.0263L27.2044 3.66567L28.2044 3.66542ZM28.2039 2.02605C28.2038 1.4629 27.8852 1.05778 27.4893 0.818977C27.1069 0.588319 26.6323 0.493628 26.1906 0.502512L26.2108 1.50231C26.5125 1.49624 26.7895 1.56467 26.9728 1.67525C27.1426 1.77768 27.2039 1.89193 27.2039 2.0263L28.2039 2.02605ZM25.1825 2.02645C25.1824 1.89144 25.2444 1.77616 25.4171 1.67306C25.6033 1.56194 25.8839 1.49424 26.1876 1.50224L26.2138 0.502584C25.7692 0.490876 25.2905 0.584055 24.9046 0.814338C24.5053 1.05264 24.1823 1.45929 24.1825 2.0267L25.1825 2.02645ZM25.183 3.66581L25.1825 2.02645L24.1825 2.0267L24.183 3.66606L25.183 3.66581ZM23.7111 5.14118L25.0056 4.04794L24.3603 3.28393L23.0658 4.37716L23.7111 5.14118ZM23.8889 6.12518L23.8885 4.75904L22.8885 4.75929L22.8889 6.12543L23.8889 6.12518ZM24.7917 5.62496L23.3887 5.62531L23.389 6.6253L24.792 6.62496L24.7917 5.62496Z" fill="#404660"/>
<path d="M51.5188 30.0996L51.52 26.0012L47.3118 26.0002L47.3114 27.3663L48.6059 28.4595L48.6054 30.0989C48.605 31.465 51.5184 31.4658 51.5188 30.0996Z" fill="#F9F9F9" stroke="#404660" stroke-linecap="round"/>
<path d="M1.00036 30.0985L1.00159 26.0001L5.20978 26.0012L5.20937 27.3673L3.91421 28.4599L3.91372 30.0993C3.91331 31.4654 0.999952 31.4647 1.00036 30.0985Z" fill="#F9F9F9" stroke="#404660" stroke-linecap="round"/>
<path fill-rule="evenodd" clip-rule="evenodd" d="M17.0934 26.0009L17.0934 26.0005L21.3016 26.0016L21.3012 27.3677L20.0061 28.4603L20.0056 30.0997C20.0054 30.7972 19.2459 31.1383 18.5025 31.1234C17.7542 31.1431 16.9842 30.8017 16.9844 30.0993L16.9849 28.4599L15.6904 27.3667L15.6908 26.0005L17.0934 26.0009Z" fill="#F9F9F9"/>
<path d="M17.0934 26.0009L17.5934 26.001L17.5933 26.501L17.0933 26.5009L17.0934 26.0009ZM17.0934 26.0005L16.5934 26.0004L16.5936 25.5004L17.0936 25.5005L17.0934 26.0005ZM21.3016 26.0016L21.3018 25.5016L21.8018 25.5017L21.8016 26.0017L21.3016 26.0016ZM21.3012 27.3677L21.8012 27.3678L21.8012 27.6001L21.6236 27.7499L21.3012 27.3677ZM20.0061 28.4603L19.5061 28.4602L19.5061 28.2279L19.6837 28.0781L20.0061 28.4603ZM20.0056 30.0997L20.5056 30.0998L20.0056 30.0997ZM18.5025 31.1234L18.4894 30.6236L18.501 30.6233L18.5125 30.6235L18.5025 31.1234ZM16.9844 30.0993L17.4844 30.0994L16.9844 30.0993ZM16.9849 28.4599L17.3075 28.0779L17.485 28.2278L17.4849 28.46L16.9849 28.4599ZM15.6904 27.3667L15.3678 27.7487L15.1903 27.5988L15.1904 27.3666L15.6904 27.3667ZM15.6908 26.0005L15.1908 26.0004L15.191 25.5004L15.691 25.5005L15.6908 26.0005ZM16.5934 26.0008L16.5934 26.0004L17.5934 26.0007L17.5934 26.001L16.5934 26.0008ZM17.0936 25.5005L21.3018 25.5016L21.3015 26.5016L17.0933 26.5005L17.0936 25.5005ZM21.8016 26.0017L21.8012 27.3678L20.8012 27.3676L20.8016 26.0015L21.8016 26.0017ZM21.6236 27.7499L20.3285 28.8425L19.6837 28.0781L20.9788 26.9856L21.6236 27.7499ZM20.5061 28.4604L20.5056 30.0998L19.5056 30.0996L19.5061 28.4602L20.5061 28.4604ZM20.5056 30.0998C20.5054 30.6629 20.1869 31.068 19.791 31.3068C19.4086 31.5375 18.9341 31.6322 18.4925 31.6233L18.5125 30.6235C18.8143 30.6296 19.0912 30.5612 19.2745 30.4506C19.4442 30.3482 19.5055 30.2339 19.5056 30.0996L20.5056 30.0998ZM17.4844 30.0994C17.4844 30.2344 17.5463 30.3497 17.719 30.4528C17.9052 30.5639 18.1857 30.6316 18.4894 30.6236L18.5156 31.6233C18.071 31.635 17.5923 31.5418 17.2065 31.3115C16.8072 31.0732 16.4842 30.6665 16.4844 30.0992L17.4844 30.0994ZM17.4849 28.46L17.4844 30.0994L16.4844 30.0992L16.4849 28.4598L17.4849 28.46ZM16.013 26.9847L17.3075 28.0779L16.6623 28.8419L15.3678 27.7487L16.013 26.9847ZM16.1908 26.0007L16.1904 27.3668L15.1904 27.3666L15.1908 26.0004L16.1908 26.0007ZM17.0933 26.5009L15.6907 26.5005L15.691 25.5005L17.0936 25.5009L17.0933 26.5009Z" fill="#404660"/>
<path fill-rule="evenodd" clip-rule="evenodd" d="M9.09345 26.0008L9.09345 26.0004L13.3016 26.0015L13.3012 27.3676L12.0061 28.4602L12.0056 30.0996C12.0054 30.7971 11.2458 31.1382 10.5024 31.1233C9.75408 31.143 8.98405 30.8016 8.98426 30.0992L8.98475 28.4598L7.69025 27.3666L7.69066 26.0004L9.09345 26.0008Z" fill="#F9F9F9"/>
<path d="M9.09345 26.0008L9.59345 26.0009L9.5933 26.5009L9.0933 26.5008L9.09345 26.0008ZM9.09345 26.0004L8.59345 26.0003L8.5936 25.5003L9.0936 25.5004L9.09345 26.0004ZM13.3016 26.0015L13.3018 25.5015L13.8018 25.5016L13.8016 26.0016L13.3016 26.0015ZM13.3012 27.3676L13.8012 27.3677L13.8012 27.6L13.6236 27.7498L13.3012 27.3676ZM12.0061 28.4602L11.5061 28.4601L11.5061 28.2278L11.6837 28.078L12.0061 28.4602ZM12.0056 30.0996L12.5056 30.0997L12.0056 30.0996ZM10.5024 31.1233L10.4893 30.6235L10.5009 30.6232L10.5125 30.6234L10.5024 31.1233ZM8.98475 28.4598L9.30737 28.0778L9.48482 28.2277L9.48475 28.4599L8.98475 28.4598ZM7.69025 27.3666L7.36763 27.7486L7.19018 27.5987L7.19025 27.3664L7.69025 27.3666ZM7.69066 26.0004L7.19066 26.0003L7.19081 25.5003L7.69081 25.5004L7.69066 26.0004ZM8.59345 26.0007L8.59345 26.0003L9.59345 26.0005L9.59345 26.0009L8.59345 26.0007ZM9.0936 25.5004L13.3018 25.5015L13.3015 26.5015L9.0933 26.5004L9.0936 25.5004ZM13.8016 26.0016L13.8012 27.3677L12.8012 27.3675L12.8016 26.0013L13.8016 26.0016ZM13.6236 27.7498L12.3285 28.8424L11.6837 28.078L12.9788 26.9854L13.6236 27.7498ZM12.5061 28.4603L12.5056 30.0997L11.5056 30.0994L11.5061 28.4601L12.5061 28.4603ZM12.5056 30.0997C12.5054 30.6628 12.1868 31.0679 11.791 31.3067C11.4086 31.5374 10.934 31.6321 10.4924 31.6232L10.5125 30.6234C10.8142 30.6295 11.0911 30.561 11.2744 30.4505C11.4442 30.348 11.5055 30.2338 11.5056 30.0994L12.5056 30.0997ZM9.48426 30.0993C9.48422 30.2343 9.54614 30.3496 9.71889 30.4527C9.90508 30.5638 10.1856 30.6315 10.4893 30.6235L10.5155 31.6232C10.0709 31.6348 9.59224 31.5417 9.20638 31.3114C8.80708 31.0731 8.48409 30.6664 8.48426 30.099L9.48426 30.0993ZM9.48475 28.4599L9.48426 30.0993L8.48426 30.099L8.48475 28.4597L9.48475 28.4599ZM8.01287 26.9846L9.30737 28.0778L8.66213 28.8418L7.36763 27.7486L8.01287 26.9846ZM8.19066 26.0006L8.19025 27.3667L7.19025 27.3664L7.19066 26.0003L8.19066 26.0006ZM9.0933 26.5008L7.69051 26.5004L7.69081 25.5004L9.0936 25.5008L9.0933 26.5008Z" fill="#404660"/>
<path fill-rule="evenodd" clip-rule="evenodd" d="M33.0934 26.0009L33.0934 26.0005L37.3016 26.0016L37.3012 27.3677L36.0061 28.4603L36.0056 30.0997C36.0054 30.7972 35.2458 31.1384 34.5024 31.1234C33.7541 31.1431 32.984 30.8017 32.9843 30.0993L32.9847 28.4599L31.6902 27.3667L31.6907 26.0005L33.0934 26.0009Z" fill="#F9F9F9"/>
<path d="M33.0934 26.0009L33.5934 26.001L33.5933 26.501L33.0933 26.5009L33.0934 26.0009ZM33.0934 26.0005L32.5934 26.0004L32.5936 25.5004L33.0936 25.5005L33.0934 26.0005ZM37.3016 26.0016L37.3018 25.5016L37.8018 25.5017L37.8016 26.0017L37.3016 26.0016ZM37.3012 27.3677L37.8012 27.3678L37.8012 27.6001L37.6236 27.7499L37.3012 27.3677ZM36.0061 28.4603L35.5061 28.4602L35.5061 28.2279L35.6837 28.0781L36.0061 28.4603ZM34.5024 31.1234L34.4893 30.6236L34.5009 30.6233L34.5125 30.6235L34.5024 31.1234ZM32.9847 28.4599L33.3074 28.0779L33.4848 28.2278L33.4847 28.46L32.9847 28.4599ZM31.6902 27.3667L31.3676 27.7487L31.1902 27.5988L31.1902 27.3666L31.6902 27.3667ZM31.6907 26.0005L31.1907 26.0004L31.1908 25.5004L31.6908 25.5005L31.6907 26.0005ZM32.5934 26.0008L32.5934 26.0004L33.5934 26.0007L33.5934 26.001L32.5934 26.0008ZM33.0936 25.5005L37.3018 25.5016L37.3015 26.5016L33.0933 26.5005L33.0936 25.5005ZM37.8016 26.0017L37.8012 27.3678L36.8012 27.3676L36.8016 26.0015L37.8016 26.0017ZM37.6236 27.7499L36.3285 28.8425L35.6837 28.0781L36.9788 26.9856L37.6236 27.7499ZM36.5061 28.4604L36.5056 30.0998L35.5056 30.0996L35.5061 28.4602L36.5061 28.4604ZM36.5056 30.0998C36.5054 30.6629 36.1868 31.068 35.7909 31.3069C35.4086 31.5375 34.934 31.6322 34.4924 31.6233L34.5125 30.6235C34.8142 30.6296 35.0911 30.5612 35.2744 30.4506C35.4442 30.3482 35.5055 30.2339 35.5056 30.0996L36.5056 30.0998ZM33.4843 30.0994C33.4842 30.2344 33.5461 30.3497 33.7189 30.4528C33.9051 30.5639 34.1856 30.6316 34.4893 30.6236L34.5155 31.6233C34.0709 31.635 33.5922 31.5418 33.2064 31.3115C32.8071 31.0732 32.4841 30.6665 32.4843 30.0992L33.4843 30.0994ZM33.4847 28.46L33.4843 30.0994L32.4843 30.0992L32.4847 28.4598L33.4847 28.46ZM32.0129 26.9847L33.3074 28.0779L32.6621 28.8419L31.3676 27.7487L32.0129 26.9847ZM32.1907 26.0007L32.1902 27.3668L31.1902 27.3666L31.1907 26.0004L32.1907 26.0007ZM33.0933 26.5009L31.6905 26.5005L31.6908 25.5005L33.0936 25.5009L33.0933 26.5009Z" fill="#404660"/>
<path fill-rule="evenodd" clip-rule="evenodd" d="M41.0934 26.0009L41.0934 26.0005L45.3016 26.0016L45.3012 27.3677L44.0061 28.4603L44.0056 30.0997C44.0054 30.7972 43.2458 31.1384 42.5024 31.1234C41.7541 31.1431 40.984 30.8017 40.9843 30.0993L40.9847 28.4599L39.6902 27.3667L39.6907 26.0005L41.0934 26.0009Z" fill="#F9F9F9"/>
<path d="M41.0934 26.0009L41.5934 26.001L41.5933 26.501L41.0933 26.5009L41.0934 26.0009ZM41.0934 26.0005L40.5934 26.0004L40.5936 25.5004L41.0936 25.5005L41.0934 26.0005ZM45.3016 26.0016L45.3018 25.5016L45.8018 25.5017L45.8016 26.0017L45.3016 26.0016ZM45.3012 27.3677L45.8012 27.3678L45.8012 27.6001L45.6236 27.7499L45.3012 27.3677ZM44.0061 28.4603L43.5061 28.4602L43.5061 28.2279L43.6837 28.0781L44.0061 28.4603ZM42.5024 31.1234L42.4893 30.6236L42.5009 30.6233L42.5125 30.6235L42.5024 31.1234ZM40.9847 28.4599L41.3074 28.0779L41.4848 28.2278L41.4847 28.46L40.9847 28.4599ZM39.6902 27.3667L39.3676 27.7487L39.1902 27.5988L39.1902 27.3666L39.6902 27.3667ZM39.6907 26.0005L39.1907 26.0004L39.1908 25.5004L39.6908 25.5005L39.6907 26.0005ZM40.5934 26.0008L40.5934 26.0004L41.5934 26.0007L41.5934 26.001L40.5934 26.0008ZM41.0936 25.5005L45.3018 25.5016L45.3015 26.5016L41.0933 26.5005L41.0936 25.5005ZM45.8016 26.0017L45.8012 27.3678L44.8012 27.3676L44.8016 26.0015L45.8016 26.0017ZM45.6236 27.7499L44.3285 28.8425L43.6837 28.0781L44.9788 26.9856L45.6236 27.7499ZM44.5061 28.4604L44.5056 30.0998L43.5056 30.0996L43.5061 28.4602L44.5061 28.4604ZM44.5056 30.0998C44.5054 30.6629 44.1868 31.068 43.7909 31.3069C43.4086 31.5375 42.934 31.6322 42.4924 31.6233L42.5125 30.6235C42.8142 30.6296 43.0911 30.5612 43.2744 30.4506C43.4442 30.3482 43.5055 30.2339 43.5056 30.0996L44.5056 30.0998ZM41.4843 30.0994C41.4842 30.2344 41.5461 30.3497 41.7189 30.4528C41.9051 30.5639 42.1856 30.6316 42.4893 30.6236L42.5155 31.6233C42.0709 31.635 41.5922 31.5418 41.2064 31.3115C40.8071 31.0732 40.4841 30.6665 40.4843 30.0992L41.4843 30.0994ZM41.4847 28.46L41.4843 30.0994L40.4843 30.0992L40.4847 28.4598L41.4847 28.46ZM40.0129 26.9847L41.3074 28.0779L40.6621 28.8419L39.3676 27.7487L40.0129 26.9847ZM40.1907 26.0007L40.1902 27.3668L39.1902 27.3666L39.1907 26.0004L40.1907 26.0007ZM41.0933 26.5009L39.6905 26.5005L39.6908 25.5005L41.0936 25.5009L41.0933 26.5009Z" fill="#404660"/>
<path fill-rule="evenodd" clip-rule="evenodd" d="M25.0934 26.0009L25.0934 26.0005L29.3016 26.0016L29.3012 27.3677L28.0061 28.4603L28.0056 30.0997C28.0054 30.7972 27.2458 31.1384 26.5023 31.1234C25.754 31.1431 24.9839 30.8017 24.9841 30.0993L24.9846 28.4599L23.6901 27.3667L23.6905 26.0005L25.0934 26.0009Z" fill="#F9F9F9"/>
<path d="M25.0934 26.0009L25.5934 26.001L25.5933 26.501L25.0933 26.5009L25.0934 26.0009ZM25.0934 26.0005L24.5934 26.0004L24.5936 25.5004L25.0936 25.5005L25.0934 26.0005ZM29.3016 26.0016L29.3018 25.5016L29.8018 25.5017L29.8016 26.0017L29.3016 26.0016ZM29.3012 27.3677L29.8012 27.3678L29.8012 27.6001L29.6236 27.7499L29.3012 27.3677ZM28.0061 28.4603L27.5061 28.4602L27.5061 28.2279L27.6837 28.0781L28.0061 28.4603ZM28.0056 30.0997L28.5056 30.0998L28.0056 30.0997ZM26.5023 31.1234L26.4892 30.6236L26.5008 30.6233L26.5124 30.6235L26.5023 31.1234ZM24.9841 30.0993L24.4841 30.0992L24.9841 30.0993ZM24.9846 28.4599L25.3072 28.0779L25.4847 28.2278L25.4846 28.46L24.9846 28.4599ZM23.6901 27.3667L23.3675 27.7487L23.19 27.5988L23.1901 27.3666L23.6901 27.3667ZM23.6905 26.0005L23.1905 26.0004L23.1907 25.5004L23.6907 25.5005L23.6905 26.0005ZM24.5934 26.0008L24.5934 26.0004L25.5934 26.0007L25.5934 26.001L24.5934 26.0008ZM25.0936 25.5005L29.3018 25.5016L29.3015 26.5016L25.0933 26.5005L25.0936 25.5005ZM29.8016 26.0017L29.8012 27.3678L28.8012 27.3676L28.8016 26.0015L29.8016 26.0017ZM29.6236 27.7499L28.3285 28.8425L27.6837 28.0781L28.9788 26.9856L29.6236 27.7499ZM28.5061 28.4604L28.5056 30.0998L27.5056 30.0996L27.5061 28.4602L28.5061 28.4604ZM28.5056 30.0998C28.5054 30.663 28.1868 31.0681 27.7909 31.3069C27.4085 31.5375 26.9339 31.6322 26.4923 31.6233L26.5124 30.6235C26.8142 30.6296 27.0911 30.5612 27.2744 30.4506C27.4442 30.3482 27.5055 30.2339 27.5056 30.0996L28.5056 30.0998ZM25.4841 30.0994C25.4841 30.2344 25.546 30.3497 25.7188 30.4528C25.905 30.5639 26.1855 30.6316 26.4892 30.6236L26.5155 31.6233C26.0708 31.635 25.5921 31.5418 25.2063 31.3115C24.8069 31.0732 24.4839 30.6666 24.4841 30.0992L25.4841 30.0994ZM25.4846 28.46L25.4841 30.0994L24.4841 30.0992L24.4846 28.4598L25.4846 28.46ZM24.0127 26.9847L25.3072 28.0779L24.662 28.8419L23.3675 27.7487L24.0127 26.9847ZM24.1905 26.0007L24.1901 27.3668L23.1901 27.3666L23.1905 26.0004L24.1905 26.0007ZM25.0933 26.5009L23.6904 26.5005L23.6907 25.5005L25.0936 25.5009L25.0933 26.5009Z" fill="#404660"/>
<mask id="path-26-inside-2_103_9" fill="white">
<path fill-rule="evenodd" clip-rule="evenodd" d="M50.4854 6.00012H1V9.80331C2.49175 10.5218 3.59002 12.9659 3.59002 15.8704C3.59002 18.775 2.49175 21.2191 1 21.9376V25.7411H50.4854V6.00012Z"/>
</mask>
<path fill-rule="evenodd" clip-rule="evenodd" d="M50.4854 6.00012H1V9.80331C2.49175 10.5218 3.59002 12.9659 3.59002 15.8704C3.59002 18.775 2.49175 21.2191 1 21.9376V25.7411H50.4854V6.00012Z" fill="#F9F9F9"/>
<path d="M1 6.00012V4.00012H-1V6.00012H1ZM50.4854 6.00012H52.4854V4.00012H50.4854V6.00012ZM1 9.80331H-1V11.0599L0.13215 11.6052L1 9.80331ZM1 21.9376L0.13215 20.1357L-1 20.681V21.9376H1ZM1 25.7411H-1V27.7411H1V25.7411ZM50.4854 25.7411V27.7411H52.4854V25.7411H50.4854ZM1 8.00012H50.4854V4.00012H1V8.00012ZM3 9.80331V6.00012H-1V9.80331H3ZM0.13215 11.6052C0.28054 11.6767 0.661335 11.9862 1.01931 12.8123C1.35871 13.5955 1.59002 14.6574 1.59002 15.8704H5.59002C5.59002 14.1789 5.2722 12.5665 4.68952 11.2219C4.12543 9.92014 3.21121 8.64842 1.86785 8.00141L0.13215 11.6052ZM1.59002 15.8704C1.59002 17.0835 1.35871 18.1454 1.01931 18.9286C0.661335 19.7546 0.28054 20.0642 0.13215 20.1357L1.86785 23.7395C3.21121 23.0925 4.12543 21.8208 4.68952 20.519C5.2722 19.1744 5.59002 17.562 5.59002 15.8704H1.59002ZM3 25.7411V21.9376H-1V25.7411H3ZM50.4854 23.7411H1V27.7411H50.4854V23.7411ZM48.4854 6.00012V25.7411H52.4854V6.00012H48.4854Z" fill="#404660" mask="url(#path-26-inside-2_103_9)"/>
<path d="M14.8678 19.0001L18.0478 13.0201H14.5578V11.9501H19.4678V12.9101L16.2778 19.0001H14.8678ZM23.4939 19.0001V17.6601H20.4239V16.7201L23.7139 11.9501H24.7739V16.6001H25.7639V17.6601H24.7739V19.0001H23.4939ZM23.4939 16.6001V13.9101L21.6539 16.6001H23.4939ZM29 19.1001C28.1667 19.1001 27.53 18.7868 27.09 18.1601C26.65 17.5268 26.43 16.6268 26.43 15.4601C26.43 14.2801 26.65 13.3835 27.09 12.7701C27.53 12.1568 28.1667 11.8501 29 11.8501C29.84 11.8501 30.4767 12.1568 30.91 12.7701C31.35 13.3835 31.57 14.2768 31.57 15.4501C31.57 16.6235 31.35 17.5268 30.91 18.1601C30.47 18.7868 29.8333 19.1001 29 19.1001ZM29 18.0501C29.4533 18.0501 29.7867 17.8435 30 17.4301C30.22 17.0101 30.33 16.3501 30.33 15.4501C30.33 14.5568 30.22 13.9101 30 13.5101C29.7867 13.1035 29.4533 12.9001 29 12.9001C28.5533 12.9001 28.22 13.1035 28 13.5101C27.78 13.9101 27.67 14.5568 27.67 15.4501C27.67 16.3501 27.78 17.0101 28 17.4301C28.22 17.8435 28.5533 18.0501 29 18.0501ZM34.9961 19.1001C34.1628 19.1001 33.5261 18.7868 33.0861 18.1601C32.6461 17.5268 32.4261 16.6268 32.4261 15.4601C32.4261 14.2801 32.6461 13.3835 33.0861 12.7701C33.5261 12.1568 34.1628 11.8501 34.9961 11.8501C35.8361 11.8501 36.4728 12.1568 36.9061 12.7701C37.3461 13.3835 37.5661 14.2768 37.5661 15.4501C37.5661 16.6235 37.3461 17.5268 36.9061 18.1601C36.4661 18.7868 35.8294 19.1001 34.9961 19.1001ZM34.9961 18.0501C35.4494 18.0501 35.7828 17.8435 35.9961 17.4301C36.2161 17.0101 36.3261 16.3501 36.3261 15.4501C36.3261 14.5568 36.2161 13.9101 35.9961 13.5101C35.7828 13.1035 35.4494 12.9001 34.9961 12.9001C34.5494 12.9001 34.2161 13.1035 33.9961 13.5101C33.7761 13.9101 33.6661 14.5568 33.6661 15.4501C33.6661 16.3501 33.7761 17.0101 33.9961 17.4301C34.2161 17.8435 34.5494 18.0501 34.9961 18.0501Z" fill="#404660"/>
</svg>
