<svg width="60" height="43" viewBox="0 0 60 43" fill="none" xmlns="http://www.w3.org/2000/svg">
<mask id="path-1-inside-1_177_5" fill="white">
<path fill-rule="evenodd" clip-rule="evenodd" d="M7.9541 0C6.84953 0 5.9541 0.895429 5.9541 2V9.16311C5.69277 9.10285 5.49793 8.86872 5.49793 8.58908C5.49793 8.26374 5.23419 8 4.90885 8H4.77798C4.45264 8 4.1889 8.26374 4.1889 8.58908C4.1889 8.91443 3.92515 9.17817 3.59981 9.17817H1C0.447715 9.17817 0 9.62588 0 10.1782V16.9487C0 17.501 0.447715 17.9487 1 17.9487H3.6653C3.95447 17.9487 4.1889 18.1831 4.1889 18.4723C4.1889 18.7615 4.42332 18.9959 4.71249 18.9959H4.97433C5.26351 18.9959 5.49793 18.7615 5.49793 18.4723C5.49793 18.206 5.69677 17.9861 5.9541 17.953V28.2624H5.8233C5.43152 28.2624 5.11392 27.9448 5.11392 27.553C5.11392 27.1612 4.79632 26.8436 4.40454 26.8436H3.56006C3.00777 26.8436 2.56006 27.2913 2.56006 27.8436V34.4984C2.56006 35.0507 3.00777 35.4984 3.56006 35.4984H4.40449C4.7963 35.4984 5.11392 35.1808 5.11392 34.789C5.11392 34.3971 5.43154 34.0795 5.82335 34.0795H5.9541V40.4291C5.9541 41.5337 6.84953 42.4291 7.9541 42.4291H55.5165C56.6211 42.4291 57.5165 41.5337 57.5165 40.4291V38.9807C57.5165 38.7111 57.6254 38.4529 57.8184 38.2647L59.4113 36.7117C59.6043 36.5235 59.7132 36.2653 59.7132 35.9957V14.1378C59.7132 13.8929 59.6233 13.6565 59.4606 13.4735L57.7691 11.5706C57.6064 11.3875 57.5165 11.1511 57.5165 10.9062V2C57.5165 0.895431 56.6211 0 55.5165 0H7.9541Z"/>
</mask>
<path d="M5.9541 9.16311L5.27996 12.0864L8.9541 12.9337V9.16311H5.9541ZM5.9541 17.953H8.9541V14.5426L5.57156 14.9775L5.9541 17.953ZM5.9541 28.2624V31.2624H8.9541V28.2624H5.9541ZM5.9541 34.0795H8.9541V31.0795H5.9541V34.0795ZM57.8184 38.2647L55.7241 36.1167L55.7241 36.1167L57.8184 38.2647ZM59.4113 36.7117L61.5056 38.8597L61.5056 38.8597L59.4113 36.7117ZM59.4606 13.4735L57.2183 15.4666L59.4606 13.4735ZM57.7691 11.5706L60.0113 9.57746L57.7691 11.5706ZM8.9541 2C8.9541 2.55229 8.50638 3 7.9541 3V-3C5.19268 -3 2.9541 -0.761428 2.9541 2H8.9541ZM8.9541 9.16311V2H2.9541V9.16311H8.9541ZM2.49793 8.58908C2.49793 10.2966 3.68745 11.7191 5.27996 12.0864L6.62824 6.23984C7.6981 6.48656 8.49793 7.4408 8.49793 8.58908H2.49793ZM4.90885 11C3.57734 11 2.49793 9.9206 2.49793 8.58908H8.49793C8.49793 6.60688 6.89104 5 4.90885 5V11ZM4.77798 11H4.90885V5H4.77798V11ZM7.1889 8.58908C7.1889 9.9206 6.10949 11 4.77798 11V5C2.79579 5 1.1889 6.60688 1.1889 8.58908H7.1889ZM3.59981 12.1782C5.582 12.1782 7.1889 10.5713 7.1889 8.58908H1.1889C1.1889 7.25757 2.2683 6.17817 3.59981 6.17817V12.1782ZM1 12.1782H3.59981V6.17817H1V12.1782ZM3 10.1782C3 11.2827 2.10457 12.1782 1 12.1782V6.17817C-1.20914 6.17817 -3 7.96903 -3 10.1782H3ZM3 16.9487V10.1782H-3V16.9487H3ZM1 14.9487C2.10457 14.9487 3 15.8441 3 16.9487H-3C-3 19.1579 -1.20914 20.9487 1 20.9487V14.9487ZM3.6653 14.9487H1V20.9487H3.6653V14.9487ZM7.1889 18.4723C7.1889 16.5263 5.61133 14.9487 3.6653 14.9487V20.9487C2.29762 20.9487 1.1889 19.84 1.1889 18.4723H7.1889ZM4.71249 15.9959C6.08017 15.9959 7.1889 17.1046 7.1889 18.4723H1.1889C1.1889 20.4183 2.76646 21.9959 4.71249 21.9959V15.9959ZM4.97433 15.9959H4.71249V21.9959H4.97433V15.9959ZM2.49793 18.4723C2.49793 17.1046 3.60666 15.9959 4.97433 15.9959V21.9959C6.92036 21.9959 8.49793 20.4183 8.49793 18.4723H2.49793ZM5.57156 14.9775C3.83682 15.2005 2.49793 16.6777 2.49793 18.4723H8.49793C8.49793 19.7343 7.55673 20.7717 6.33665 20.9285L5.57156 14.9775ZM8.9541 28.2624V17.953H2.9541V28.2624H8.9541ZM5.8233 31.2624H5.9541V25.2624H5.8233V31.2624ZM2.11392 27.553C2.11392 29.6016 3.77467 31.2624 5.8233 31.2624V25.2624C7.08837 25.2624 8.11392 26.2879 8.11392 27.553H2.11392ZM4.40454 29.8436C3.13947 29.8436 2.11392 28.8181 2.11392 27.553H8.11392C8.11392 25.5044 6.45317 23.8436 4.40454 23.8436V29.8436ZM3.56006 29.8436H4.40454V23.8436H3.56006V29.8436ZM5.56006 27.8436C5.56006 28.9482 4.66463 29.8436 3.56006 29.8436V23.8436C1.35092 23.8436 -0.439941 25.6345 -0.439941 27.8436H5.56006ZM5.56006 34.4984V27.8436H-0.439941V34.4984H5.56006ZM3.56006 32.4984C4.66463 32.4984 5.56006 33.3938 5.56006 34.4984H-0.439941C-0.439941 36.7075 1.35092 38.4984 3.56006 38.4984V32.4984ZM4.40449 32.4984H3.56006V38.4984H4.40449V32.4984ZM2.11392 34.789C2.11392 33.5239 3.13945 32.4984 4.40449 32.4984V38.4984C6.45315 38.4984 8.11392 36.8376 8.11392 34.789H2.11392ZM5.82335 31.0795C3.77469 31.0795 2.11392 32.7403 2.11392 34.789H8.11392C8.11392 36.054 7.0884 37.0795 5.82335 37.0795V31.0795ZM5.9541 31.0795H5.82335V37.0795H5.9541V31.0795ZM8.9541 40.4291V34.0795H2.9541V40.4291H8.9541ZM7.9541 39.4291C8.50639 39.4291 8.9541 39.8769 8.9541 40.4291H2.9541C2.9541 43.1906 5.19268 45.4291 7.9541 45.4291V39.4291ZM55.5165 39.4291H7.9541V45.4291H55.5165V39.4291ZM54.5165 40.4291C54.5165 39.8769 54.9642 39.4291 55.5165 39.4291V45.4291C58.2779 45.4291 60.5165 43.1906 60.5165 40.4291H54.5165ZM54.5165 38.9807V40.4291H60.5165V38.9807H54.5165ZM55.7241 36.1167C54.952 36.8696 54.5165 37.9023 54.5165 38.9807H60.5165C60.5165 39.52 60.2988 40.0363 59.9127 40.4127L55.7241 36.1167ZM57.317 34.5637L55.7241 36.1167L59.9127 40.4127L61.5056 38.8597L57.317 34.5637ZM56.7132 35.9957C56.7132 35.4565 56.9309 34.9401 57.3169 34.5637L61.5056 38.8597C62.2777 38.1068 62.7132 37.0741 62.7132 35.9957H56.7132ZM56.7132 14.1378V35.9957H62.7132V14.1378H56.7132ZM57.2183 15.4666C56.8929 15.1005 56.7132 14.6277 56.7132 14.1378H62.7132C62.7132 13.1582 62.3536 12.2126 61.7028 11.4804L57.2183 15.4666ZM55.5269 13.5636L57.2183 15.4666L61.7028 11.4804L60.0113 9.57746L55.5269 13.5636ZM54.5165 10.9062C54.5165 11.8858 54.876 12.8314 55.5269 13.5636L60.0113 9.57746C60.3367 9.94357 60.5165 10.4164 60.5165 10.9062H54.5165ZM54.5165 2V10.9062H60.5165V2H54.5165ZM55.5165 3C54.9642 3 54.5165 2.55229 54.5165 2H60.5165C60.5165 -0.761425 58.2779 -3 55.5165 -3V3ZM7.9541 3H55.5165V-3H7.9541V3Z" fill="#404660" mask="url(#path-1-inside-1_177_5)"/>
<rect x="19.8798" y="18.4919" width="2.08099" height="0.693664" rx="0.346832" fill="#404660" stroke="#404660" stroke-width="0.693664"/>
<rect x="19.8798" y="13.8673" width="2.08099" height="0.693664" rx="0.346832" fill="#404660" stroke="#404660" stroke-width="0.693664"/>
<rect x="19.8798" y="16.1797" width="2.08099" height="0.693664" rx="0.346832" fill="#404660" stroke="#404660" stroke-width="0.693664"/>
<rect x="35.0601" y="5.5" width="1" height="1" rx="0.5" stroke="#404660"/>
<rect x="38.0601" y="5.5" width="1" height="1" rx="0.5" stroke="#404660"/>
<rect x="41.0601" y="5.5" width="1" height="1" rx="0.5" stroke="#404660"/>
<rect x="44.0601" y="5.5" width="1" height="1" rx="0.5" stroke="#404660"/>
<rect x="47.0601" y="5.5" width="1" height="1" rx="0.5" stroke="#404660"/>
<rect x="50.0601" y="5.5" width="1" height="1" rx="0.5" stroke="#404660"/>
<rect x="33.0601" y="4.5" width="20" height="3" rx="0.5" stroke="#404660"/>
<rect x="13.0601" y="5.5" width="1" height="1" rx="0.5" stroke="#404660"/>
<rect x="16.0601" y="5.5" width="1" height="1" rx="0.5" stroke="#404660"/>
<rect x="19.0601" y="5.5" width="1" height="1" rx="0.5" stroke="#404660"/>
<rect x="22.0601" y="5.5" width="1" height="1" rx="0.5" stroke="#404660"/>
<rect x="25.0601" y="5.5" width="1" height="1" rx="0.5" stroke="#404660"/>
<rect x="28.0601" y="5.5" width="1" height="1" rx="0.5" stroke="#404660"/>
<rect x="11.0601" y="4.5" width="20" height="3" rx="0.5" stroke="#404660"/>
<rect x="35.0601" y="35.5" width="1" height="1" rx="0.5" stroke="#404660"/>
<rect x="38.0601" y="35.5" width="1" height="1" rx="0.5" stroke="#404660"/>
<rect x="41.0601" y="35.5" width="1" height="1" rx="0.5" stroke="#404660"/>
<rect x="44.0601" y="35.5" width="1" height="1" rx="0.5" stroke="#404660"/>
<rect x="47.0601" y="35.5" width="1" height="1" rx="0.5" stroke="#404660"/>
<rect x="50.0601" y="35.5" width="1" height="1" rx="0.5" stroke="#404660"/>
<rect x="33.0601" y="34.5" width="20" height="3" rx="0.5" stroke="#404660"/>
<rect x="13.0601" y="35.5" width="1" height="1" rx="0.5" fill="#A4A7B3" stroke="#404660"/>
<rect x="16.0601" y="35.5" width="1" height="1" rx="0.5" fill="#A4A7B3" stroke="#404660"/>
<rect x="19.0601" y="35.5" width="1" height="1" rx="0.5" fill="#A4A7B3" stroke="#404660"/>
<rect x="22.0601" y="35.5" width="1" height="1" rx="0.5" fill="#A4A7B3" stroke="#404660"/>
<rect x="25.0601" y="35.5" width="1" height="1" rx="0.5" fill="#A4A7B3" stroke="#404660"/>
<rect x="28.0601" y="35.5" width="1" height="1" rx="0.5" fill="#A4A7B3" stroke="#404660"/>
<rect x="11.5" y="34.5" width="20" height="3" rx="0.5" stroke="#404660"/>
<rect x="27.0599" y="24.5" width="28" height="4" stroke="#404660"/>
</svg>
