<svg width="46" height="46" viewBox="0 0 46 46" fill="none" xmlns="http://www.w3.org/2000/svg">
<mask id="path-1-inside-1_103_431" fill="white">
<rect x="12" width="22" height="22" rx="1"/>
</mask>
<rect x="12" width="22" height="22" rx="1" stroke="#404660" stroke-width="6" mask="url(#path-1-inside-1_103_431)"/>
<path d="M19.2893 14L22.4793 6.95H23.5293L26.7193 14H25.4193L24.7193 12.37H21.2793L20.5893 14H19.2893ZM22.9893 8.34L21.7193 11.35H24.2793L23.0093 8.34H22.9893Z" fill="#404660"/>
<mask id="path-3-inside-2_103_431" fill="white">
<rect y="24" width="22" height="22" rx="1"/>
</mask>
<rect y="24" width="22" height="22" rx="1" stroke="#404660" stroke-width="6" mask="url(#path-3-inside-2_103_431)"/>
<path d="M8.82762 38V30.95H11.9076C12.6476 30.95 13.221 31.1133 13.6276 31.44C14.0343 31.76 14.2376 32.2067 14.2376 32.78C14.2376 33.16 14.141 33.4867 13.9476 33.76C13.7543 34.0333 13.4876 34.2333 13.1476 34.36C13.5476 34.4733 13.8576 34.6733 14.0776 34.96C14.3043 35.24 14.4176 35.5967 14.4176 36.03C14.4176 36.6567 14.2043 37.1433 13.7776 37.49C13.3576 37.83 12.771 38 12.0176 38H8.82762ZM10.0576 33.94H11.6876C12.561 33.94 12.9976 33.6033 12.9976 32.93C12.9976 32.2567 12.561 31.92 11.6876 31.92H10.0576V33.94ZM10.0576 37.03H11.8576C12.7376 37.03 13.1776 36.6767 13.1776 35.97C13.1776 35.2633 12.7376 34.91 11.8576 34.91H10.0576V37.03Z" fill="#404660"/>
<mask id="path-5-inside-3_103_431" fill="white">
<rect x="24" y="24" width="22" height="22" rx="1"/>
</mask>
<rect x="24" y="24" width="22" height="22" rx="1" stroke="#404660" stroke-width="6" mask="url(#path-5-inside-3_103_431)"/>
<path d="M35.1564 38.1C34.4231 38.1 33.7931 37.9533 33.2664 37.66C32.7464 37.36 32.3464 36.94 32.0664 36.4C31.7864 35.8533 31.6464 35.21 31.6464 34.47C31.6464 33.73 31.7864 33.09 32.0664 32.55C32.3464 32.01 32.7464 31.5933 33.2664 31.3C33.7931 31 34.4231 30.85 35.1564 30.85C35.6298 30.85 36.0764 30.9233 36.4964 31.07C36.9231 31.2167 37.2731 31.4267 37.5464 31.7L37.1264 32.72C36.8264 32.4667 36.5198 32.2833 36.2064 32.17C35.8931 32.05 35.5564 31.99 35.1964 31.99C34.4831 31.99 33.9398 32.2067 33.5664 32.64C33.1931 33.0667 33.0064 33.6767 33.0064 34.47C33.0064 35.2633 33.1931 35.8767 33.5664 36.31C33.9398 36.7433 34.4831 36.96 35.1964 36.96C35.5564 36.96 35.8931 36.9033 36.2064 36.79C36.5198 36.67 36.8264 36.4833 37.1264 36.23L37.5464 37.25C37.2731 37.5167 36.9231 37.7267 36.4964 37.88C36.0764 38.0267 35.6298 38.1 35.1564 38.1Z" fill="#404660"/>
</svg>
