<svg width="27" height="64" viewBox="0 0 27 64" fill="none" xmlns="http://www.w3.org/2000/svg">
<path d="M6.74979 61.9893C6.74389 62.8177 7.41065 63.4941 8.23906 63.5C9.06746 63.5059 9.74381 62.8391 9.74972 62.0107L6.74979 61.9893ZM6.89948 41.0036L6.74979 61.9893L9.74972 62.0107L9.8994 41.025L6.89948 41.0036Z" fill="#404660"/>
<path d="M16.599 61.9893C16.5931 62.8177 17.2599 63.4941 18.0883 63.5C18.9167 63.5059 19.5931 62.8391 19.599 62.0107L16.599 61.9893ZM16.7487 41.0036L16.599 61.9893L19.599 62.0107L19.7486 41.025L16.7487 41.0036Z" fill="#404660"/>
<path d="M22.6987 2H4.29986C2.45997 2 2 3.53324 2 4.29986V28.4484C2 29.8283 2.76662 30.5566 3.14993 30.7482C5.90976 32.2144 4.68317 34.8089 3.72489 35.9229C3.14993 36.3062 2 37.5328 2 39.3727C2 41.2126 3.14993 41.6726 3.72489 41.6726H22.6987C24.5386 41.6726 24.9986 40.1393 24.9986 39.3727C24.9986 38.7977 25.1136 37.7628 23.2737 35.9229C20.9738 33.623 22.6987 31.3232 23.8487 30.7482C24.9986 30.1733 24.9986 28.9155 24.9986 28.9155V4.87482C24.9986 3.03494 23.4653 2.19165 22.6987 2Z" stroke="#404660" stroke-width="3"/>
<path d="M7 29.9855V3H11.8V29.9855C11.8 30.5363 13 31.6377 13 32.7391C13 34.3913 12.2 35.2518 11.8 35.9574V41H7V36.0435C7 34.942 8.8 33.8406 8.8 32.7391C8.8 31.858 7 30.5363 7 29.9855Z" fill="#F9F9F9" stroke="#404660"/>
</svg>
