<svg width="50" height="42" viewBox="0 0 50 42" fill="none" xmlns="http://www.w3.org/2000/svg">
<path d="M23.8582 6.6369L22.1374 4.96607L20.3527 6.38208L22.4268 8.50576L23.8582 6.6369Z" fill="#404660" stroke="#404660" stroke-width="3"/>
<path d="M4.45624 6.93756L6.17701 5.26673L7.96174 6.68273L5.88763 8.80642L4.45624 6.93756Z" fill="#404660" stroke="#404660" stroke-width="3"/>
<path d="M13.0131 2.44528L15.4614 2.47436L15.8168 4.73639L12.7103 4.78054L13.0131 2.44528Z" fill="#404660" stroke="#404660" stroke-width="3"/>
<path d="M23.8582 22.6624L22.1374 24.3332L20.3527 22.9172L22.4268 20.7936L23.8582 22.6624Z" fill="#404660" stroke="#404660" stroke-width="3"/>
<path d="M4.45624 22.1564L6.17701 23.8272L7.96174 22.4112L5.88763 20.2875L4.45624 22.1564Z" fill="#404660" stroke="#404660" stroke-width="3"/>
<path d="M13.0131 26.7447L15.4614 26.7156L15.8168 24.4536L12.7103 24.4095L13.0131 26.7447Z" fill="#404660" stroke="#404660" stroke-width="3"/>
<path d="M2.18064 13.1558L2.18182 15.6043L4.43965 15.9854L4.5192 12.8796L2.18064 13.1558Z" fill="#404660" stroke="#404660" stroke-width="3"/>
<circle cx="14.4006" cy="14.6243" r="8.25804" fill="#F9F9F9" stroke="#404660" stroke-width="2"/>
<circle cx="14.4008" cy="14.6243" r="3.7082" fill="#F9F9F9" stroke="#404660"/>
<path d="M26.4787 13.4327L26.4218 15.8805L24.1558 16.2101L24.1471 13.1033L26.4787 13.4327Z" fill="#404660" stroke="#404660" stroke-width="3"/>
<path d="M29.2187 30.5L23.5842 32.4C21.7061 33.0333 18.7011 33.54 21.7061 30.5L27.3405 26.7C31.0968 24.8 34.1018 23.28 38.6093 24.8V32.4C36.7312 32.4 32.5993 33.16 31.0968 36.2C29.8447 37.4667 26.5893 40 23.5842 40C19.828 40 10.4373 38.1 6.68104 36.2C4.17686 34.9333 2.17351 32.4 6.68104 32.4C11.1886 32.4 15.6219 32.4 17.5 32.4M48 21H42.3656L40.4875 22.9V34.3L42.3656 36.2H48V21Z" stroke="#404660" stroke-width="2.5" stroke-linecap="round" stroke-linejoin="round"/>
</svg>
