<svg width="38" height="38" viewBox="0 0 38 38" fill="none" xmlns="http://www.w3.org/2000/svg">
<path d="M9.00012 1V37" stroke="#404660" stroke-width="2" stroke-linecap="round"/>
<path d="M13.0001 1V37" stroke="#404660" stroke-width="2" stroke-linecap="round"/>
<path d="M17.0001 1V37" stroke="#404660" stroke-width="2" stroke-linecap="round"/>
<path d="M21.0001 1V37" stroke="#404660" stroke-width="2" stroke-linecap="round"/>
<path d="M25.0001 1V37" stroke="#404660" stroke-width="2" stroke-linecap="round"/>
<path d="M29.0001 1V37" stroke="#404660" stroke-width="2" stroke-linecap="round"/>
<path d="M37.0001 11H1.00012M37.0001 11H1.00012" stroke="#404660" stroke-width="2" stroke-linecap="round"/>
<path d="M37.0001 14H1.00012M37.0001 14H1.00012" stroke="#404660" stroke-width="2" stroke-linecap="round"/>
<path d="M37.0001 17H1.00012M37.0001 17H1.00012" stroke="#404660" stroke-width="2" stroke-linecap="round"/>
<path d="M37.0001 20H1.00012M37.0001 20H1.00012" stroke="#404660" stroke-width="2" stroke-linecap="round"/>
<path d="M37.0001 23H1.00012M37.0001 23H1.00012" stroke="#404660" stroke-width="2" stroke-linecap="round"/>
<path d="M37.0001 26H1.00012M37.0001 26H1.00012" stroke="#404660" stroke-width="2" stroke-linecap="round"/>
<rect x="28.8763" y="28.5" width="19.9144" height="19.22" rx="2.5" transform="rotate(180 28.8763 28.5)" fill="#F9F9F9" stroke="#404660" stroke-width="3"/>
</svg>
