<svg width="68" height="25" viewBox="0 0 68 25" fill="none" xmlns="http://www.w3.org/2000/svg">
<path d="M2 12.5054H8.37037C8.96296 7.15722 10.4444 2.1046 14.4444 2.57642C17.5556 3.31526 20.5185 10.2603 21.4074 15.4607C22.0615 19.2872 21.1111 23.2344 18.7407 22.5251C17.9506 22.2788 16.4889 20.4848 16.963 16.9384C17.5556 12.5054 19.6296 2.01386 24.5185 2.01386C28.4296 2.01386 32.5 12.5054 31.7778 19.746C31.5899 21.6291 29.8598 24.0028 28.0741 22.1103C27.284 21.2729 26.1778 18.1797 28.0741 12.5054C30.4444 5.41251 31.7778 2.01386 34.5926 2.01386C37.4074 2.01386 42.7407 11.0277 42.7407 18.2683C42.7407 21.0474 41.0222 24.0017 38.8889 22.1103C37.5556 20.9774 36.1333 16.0222 41.1111 5.26474C41.1111 5.26474 42.9815 2.01385 45.5 2.01386C48.6252 2.01386 52.6667 8.6349 52.963 18.2683C53.0543 21.237 51.6296 22.9969 50 22.9969C48.3704 22.9969 47.4222 19.746 48.5 15.4607C49.5778 11.1755 52.2222 2.01386 55.6296 2.01386C56.963 1.81683 59.6704 3.66766 60.5 10.9969C60.5 12.9179 60.6667 12.5054 66 12.5054" stroke="#404660" stroke-width="3" stroke-linecap="round" stroke-linejoin="round"/>
</svg>
