<svg width="30" height="40" viewBox="0 0 30 40" fill="none" xmlns="http://www.w3.org/2000/svg">
<path d="M20.9849 7.30769C20.9849 10.4109 18.2373 13.1154 14.6061 13.1154C10.9749 13.1154 8.22729 10.4109 8.22729 7.30769C8.22729 4.20448 10.9749 1.5 14.6061 1.5C18.2373 1.5 20.9849 4.20448 20.9849 7.30769Z" fill="#F9F9F9" stroke="#404660" stroke-width="3"/>
<path d="M5.15504 20.4615C5.08939 18.673 5.94278 14.8538 9.88148 13.8846H20.1221C21.5007 14.0577 24.3759 15.4769 24.8486 19.7692" stroke="#404660" stroke-width="2.5" stroke-linecap="round" stroke-linejoin="round"/>
<path d="M2 32.1538V20.5318C5.0398 20.5895 11.8567 21.4325 14.806 24.3427C17.4577 22.8414 23.809 19.9774 28 20.5318V32.1538" stroke="#404660" stroke-width="2.5" stroke-linecap="round" stroke-linejoin="round"/>
<path d="M2 33.1586L15 38M15 38L28 33.1586M15 38V24.1154" stroke="#404660" stroke-width="2.5" stroke-linecap="round" stroke-linejoin="round"/>
<path d="M6 21.5V27L7 26L8 27V21.8125" stroke="#404660" stroke-linecap="round" stroke-linejoin="round"/>
</svg>
