<svg width="47" height="45" viewBox="0 0 47 45" fill="none" xmlns="http://www.w3.org/2000/svg">
<path d="M2.33245 37.7717C1.6421 37.7743 1.08359 38.336 1.08498 39.0263C1.08638 39.7167 1.64715 40.2743 2.3375 40.2717L2.33245 37.7717ZM16.0426 37.7207L2.33245 37.7717L2.3375 40.2717L16.0477 40.2207L16.0426 37.7207Z" fill="#404660"/>
<path d="M2.31292 28.1086C1.62257 28.1112 1.06406 28.6729 1.06545 29.3633C1.06685 30.0536 1.62761 30.6112 2.31797 30.6086L2.31292 28.1086ZM16.0231 28.0576L2.31292 28.1086L2.31797 30.6086L16.0282 30.5576L16.0231 28.0576Z" fill="#404660"/>
<path d="M2.01589 14.4387C1.32554 14.4414 0.766953 15.0033 0.768259 15.6937C0.769564 16.384 1.33026 16.9414 2.02061 16.9387L2.01589 14.4387ZM15.0428 14.387L2.01589 14.4387L2.02061 16.9387L15.0475 16.887L15.0428 14.387Z" fill="#404660"/>
<path d="M2.00272 4.77587C1.31237 4.77587 0.751567 5.33551 0.750133 6.02587C0.748698 6.71624 1.30717 7.27588 1.99752 7.27589L2.00272 4.77587ZM14.8068 4.77591L2.00272 4.77587L1.99752 7.27589L14.8016 7.27593L14.8068 4.77591Z" fill="#404660"/>
<path d="M16.0452 43V25H24.3683C30.5147 26.2 31.7098 31.6 31.5391 34.15C31.4366 40.27 26.7159 42.6 24.3683 43H16.0452Z" fill="#F9F9F9"/>
<path d="M31.5391 34.15C31.4366 40.27 26.7159 42.6 24.3683 43H16.0452V25H24.3683C30.5147 26.2 31.7098 31.6 31.5391 34.15ZM31.5391 34.15H45.0452" stroke="#404660" stroke-width="2.5" stroke-linecap="round"/>
<path d="M14.0452 2C15.0515 5.39508 16.4603 13.8044 14.0452 20.2812" stroke="#404660" stroke-width="2.5" stroke-linecap="round"/>
<path d="M17.4165 2.04251C25.6681 1.41573 31.0014 7.87508 32.6366 11.1831C27.8064 19.7492 20.4773 20.6719 17.4165 20.0626C19.8316 13.3769 18.4228 5.26349 17.4165 2.04251Z" fill="#F9F9F9"/>
<path d="M32.6366 11.1831C31.0014 7.87508 25.6681 1.41573 17.4165 2.04251C18.4228 5.26349 19.8316 13.3769 17.4165 20.0626C20.4773 20.6719 27.8064 19.7492 32.6366 11.1831ZM32.6366 11.1831H35.341H44.5452" stroke="#404660" stroke-width="2.5" stroke-linecap="round"/>
</svg>
