<svg width="53" height="46" viewBox="0 0 53 46" fill="none" xmlns="http://www.w3.org/2000/svg">
<path d="M47.2 17.6V19.1C47.551 19.1 47.8908 18.977 48.1603 18.7523L47.2 17.6ZM50.8 14.6L51.7603 15.7523C52.1023 15.4673 52.3 15.0452 52.3 14.6H50.8ZM52.3 2C52.3 1.17157 51.6285 0.5 50.8 0.5C49.9716 0.5 49.3 1.17157 49.3 2H52.3ZM44.8 19.1H47.2V16.1H44.8V19.1ZM48.1603 18.7523L51.7603 15.7523L49.8398 13.4477L46.2398 16.4477L48.1603 18.7523ZM52.3 14.6V2H49.3V14.6H52.3Z" fill="#404660"/>
<path d="M47.8 28.4V26.9C48.1509 26.9 48.4907 27.023 48.7603 27.2477L47.8 28.4ZM51.4 31.4L52.3603 30.2477C52.7023 30.5327 52.9 30.9548 52.9 31.4H51.4ZM52.9 44C52.9 44.8284 52.2285 45.5 51.4 45.5C50.5716 45.5 49.9 44.8284 49.9 44H52.9ZM45.4 26.9H47.8V29.9H45.4V26.9ZM48.7603 27.2477L52.3603 30.2477L50.4397 32.5523L46.8397 29.5523L48.7603 27.2477ZM52.9 31.4V44H49.9V31.4H52.9Z" fill="#404660"/>
<path d="M6.19998 17.6V19.1C5.84907 19.1 5.50927 18.977 5.2397 18.7523L6.19998 17.6ZM2.59998 14.6L1.6397 15.7523C1.29771 15.4673 1.09998 15.0452 1.09998 14.6H2.59998ZM1.09998 2C1.09998 1.17157 1.77155 0.5 2.59998 0.5C3.4284 0.5 4.09998 1.17157 4.09998 2H1.09998ZM8.59998 19.1H6.19998V16.1H8.59998V19.1ZM5.2397 18.7523L1.6397 15.7523L3.56025 13.4477L7.16025 16.4477L5.2397 18.7523ZM1.09998 14.6V2H4.09998V14.6H1.09998Z" fill="#404660"/>
<path d="M5.6 28.4V26.9C5.2491 26.9 4.9093 27.023 4.63972 27.2477L5.6 28.4ZM2 31.4L1.03972 30.2477C0.697734 30.5327 0.5 30.9548 0.5 31.4H2ZM0.5 44C0.5 44.8284 1.17157 45.5 2 45.5C2.82843 45.5 3.5 44.8284 3.5 44H0.5ZM8 26.9H5.6V29.9H8V26.9ZM4.63972 27.2477L1.03972 30.2477L2.96028 32.5523L6.56028 29.5523L4.63972 27.2477ZM0.5 31.4V44H3.5V31.4H0.5Z" fill="#404660"/>
<mask id="path-5-inside-1_103_275" fill="white">
<rect x="8" y="4" width="38" height="38" rx="1"/>
</mask>
<rect x="8" y="4" width="38" height="38" rx="1" stroke="#404660" stroke-width="6" mask="url(#path-5-inside-1_103_275)"/>
<path d="M21.0393 7V39" stroke="#404660" stroke-width="2" stroke-linecap="round"/>
<path d="M25.0393 7V39" stroke="#404660" stroke-width="2" stroke-linecap="round"/>
<path d="M29.0393 7V39" stroke="#404660" stroke-width="2" stroke-linecap="round"/>
<path d="M33.0393 7V39" stroke="#404660" stroke-width="2" stroke-linecap="round"/>
<path d="M42.9993 16.8945L11 17.1056" stroke="#404660" stroke-width="2" stroke-linecap="round"/>
<path d="M43.0256 20.8945L11.0263 21.1056" stroke="#404660" stroke-width="2" stroke-linecap="round"/>
<path d="M43.0785 28.8943L11.0792 29.1054" stroke="#404660" stroke-width="2" stroke-linecap="round"/>
<path d="M43.052 24.8945L11.0527 25.1056" stroke="#404660" stroke-width="2" stroke-linecap="round"/>
<rect x="15.5" y="11.5" width="23" height="23" rx="0.5" fill="#F9F9F9" stroke="#404660"/>
<rect x="19.5" y="15.5" width="15" height="15" rx="0.5" fill="#F9F9F9" stroke="#404660"/>
</svg>
