<svg width="48" height="38" viewBox="0 0 48 38" fill="none" xmlns="http://www.w3.org/2000/svg">
<path d="M1.5 36.5V1.5H46.1145V36.5H1.5Z" stroke="#404660" stroke-width="3"/>
<rect x="0.572289" y="20.7171" width="6.63855" height="1.14458" fill="#F9F9F9" stroke="#404660" stroke-width="1.14458"/>
<rect x="0.572289" y="27.1265" width="6.63855" height="1.14458" fill="#F9F9F9" stroke="#404660" stroke-width="1.14458"/>
<rect x="0.572289" y="23.9217" width="6.63855" height="1.14458" fill="#F9F9F9" stroke="#404660" stroke-width="1.14458"/>
<path d="M22.8494 4.80724C22.8494 5.35546 22.3182 5.90965 21.5181 5.90965C20.718 5.90965 20.1868 5.35546 20.1868 4.80724C20.1868 4.25903 20.718 3.70483 21.5181 3.70483C22.3182 3.70483 22.8494 4.25903 22.8494 4.80724Z" fill="#F9F9F9" stroke="#404660"/>
<circle cx="26.7832" cy="4.80724" r="1.10241" fill="#F9F9F9" stroke="#404660"/>
<circle cx="31.8193" cy="4.80724" r="1.10241" fill="#F9F9F9" stroke="#404660"/>
<path d="M38.4157 4.80724C38.4157 5.35546 37.8845 5.90965 37.0844 5.90965C36.2843 5.90965 35.7531 5.35546 35.7531 4.80724C35.7531 4.25903 36.2843 3.70483 37.0844 3.70483C37.8845 3.70483 38.4157 4.25903 38.4157 4.80724Z" fill="#F9F9F9" stroke="#404660"/>
<circle cx="42.3494" cy="4.80724" r="1.10241" fill="#F9F9F9" stroke="#404660"/>
<path d="M17.3553 9.61453C17.3553 10.4146 16.8011 10.9459 16.2529 10.9459C15.7047 10.9459 15.1505 10.4146 15.1505 9.61453C15.1505 8.81445 15.7047 8.2832 16.2529 8.2832C16.8011 8.2832 17.3553 8.81445 17.3553 9.61453Z" fill="#F9F9F9" stroke="#404660"/>
<path d="M22.3916 9.61453C22.3916 10.4146 21.8374 10.9459 21.2892 10.9459C20.741 10.9459 20.1868 10.4146 20.1868 9.61453C20.1868 8.81445 20.741 8.2832 21.2892 8.2832C21.8374 8.2832 22.3916 8.81445 22.3916 9.61453Z" fill="#F9F9F9" stroke="#404660"/>
<circle cx="26.5542" cy="9.61453" r="1.33133" fill="#F9F9F9" stroke="#404660"/>
<path d="M32.9217 9.61453C32.9217 10.4146 32.3675 10.9459 31.8193 10.9459C31.2711 10.9459 30.7169 10.4146 30.7169 9.61453C30.7169 8.81445 31.2711 8.2832 31.8193 8.2832C32.3675 8.2832 32.9217 8.81445 32.9217 9.61453Z" fill="#F9F9F9" stroke="#404660"/>
<path d="M37.9579 9.61453C37.9579 10.4146 37.4037 10.9459 36.8555 10.9459C36.3072 10.9459 35.7531 10.4146 35.7531 9.61453C35.7531 8.81445 36.3072 8.2832 36.8555 8.2832C37.4037 8.2832 37.9579 8.81445 37.9579 9.61453Z" fill="#F9F9F9" stroke="#404660"/>
<path d="M8.65667 33.6505C8.65667 34.1987 8.12542 34.7529 7.32534 34.7529C6.52527 34.7529 5.99402 34.1987 5.99402 33.6505C5.99402 33.1023 6.52527 32.5481 7.32534 32.5481C8.12542 32.5481 8.65667 33.1023 8.65667 33.6505Z" fill="#F9F9F9" stroke="#404660"/>
<path d="M13.6927 33.6505C13.6927 34.1987 13.1614 34.7529 12.3614 34.7529C11.5613 34.7529 11.03 34.1987 11.03 33.6505C11.03 33.1023 11.5613 32.5481 12.3614 32.5481C13.1614 32.5481 13.6927 33.1023 13.6927 33.6505Z" fill="#F9F9F9" stroke="#404660"/>
<rect x="3.20478" y="1.37336" width="0.915663" height="9.61446" fill="#F9F9F9" stroke="#404660" stroke-width="0.915663"/>
<rect x="5.95185" y="1.37336" width="0.915663" height="9.61446" fill="#F9F9F9" stroke="#404660" stroke-width="0.915663"/>
<rect x="8.6988" y="1.37336" width="0.915663" height="4.57831" fill="#F9F9F9" stroke="#404660" stroke-width="0.915663"/>
<rect x="41.5" y="8.5" width="2.20482" height="4.95181" stroke="#404660"/>
<rect x="32.5" y="31.5" width="11.3614" height="2.66265" stroke="#404660"/>
<path d="M17.7546 15.5662V35.7087" stroke="#404660" stroke-linecap="round"/>
<path d="M20.1479 15.5662V35.7087" stroke="#404660" stroke-linecap="round"/>
<path d="M22.5409 15.5662V35.7087" stroke="#404660" stroke-linecap="round"/>
<path d="M24.9343 15.5662V35.7087" stroke="#404660" stroke-linecap="round"/>
<path d="M27.3274 15.5662V35.7087" stroke="#404660" stroke-linecap="round"/>
<path d="M29.7205 15.5662V35.7087" stroke="#404660" stroke-linecap="round"/>
<path d="M35.3046 19.5549H30.1194M35.3046 19.5549H30.1194" stroke="#404660" stroke-linecap="round"/>
<path d="M35.3046 21.5492H30.1194M35.3046 21.5492H30.1194" stroke="#404660" stroke-linecap="round"/>
<path d="M35.3046 23.5435H30.1194M35.3046 23.5435H30.1194" stroke="#404660" stroke-linecap="round"/>
<path d="M35.3046 25.5375H30.1194M35.3046 25.5375H30.1194" stroke="#404660" stroke-linecap="round"/>
<path d="M35.3046 27.5319H30.1194M35.3046 27.5319H30.1194" stroke="#404660" stroke-linecap="round"/>
<path d="M35.3046 29.5262H30.1194M35.3046 29.5262H30.1194" stroke="#404660" stroke-linecap="round"/>
<path d="M46.6772 19.6129H42.9998M46.6772 19.6129H42.9998" stroke="#404660" stroke-linecap="square"/>
<path d="M46.6772 21.5H42.9998M46.6772 21.5H42.9998" stroke="#404660" stroke-linecap="square"/>
<path d="M46.6772 23.5H42.9998M46.6772 23.5H42.9998" stroke="#404660" stroke-linecap="square"/>
<path d="M46.6772 25.5H42.9998M46.6772 25.5H42.9998" stroke="#404660" stroke-linecap="square"/>
<path d="M46.6772 27.5H42.9998M46.6772 27.5H42.9998" stroke="#404660" stroke-linecap="square"/>
<path d="M46.6772 29.5H42.9998M46.6772 29.5H42.9998" stroke="#404660" stroke-linecap="square"/>
<path d="M39.1237 19.5H37.7502M39.1237 19.5H37.7502" stroke="#404660" stroke-linecap="round"/>
<path d="M39.1237 21.5H37.7502M39.1237 21.5H37.7502" stroke="#404660" stroke-linecap="round"/>
<path d="M39.124 23.5507H37.7505M39.124 23.5507H37.7505" stroke="#404660" stroke-linecap="round"/>
<path d="M39.1237 25.5H37.7502M39.1237 25.5H37.7502" stroke="#404660" stroke-linecap="round"/>
<path d="M39.1237 27.5H37.7502M39.1237 27.5H37.7502" stroke="#404660" stroke-linecap="round"/>
<path d="M39.124 29.5026H37.7505M39.124 29.5026H37.7505" stroke="#404660" stroke-linecap="round"/>
<path d="M17.3928 21.8858C17.669 21.8877 17.8949 21.6654 17.8974 21.3893C17.9 21.1132 17.6782 20.8878 17.4021 20.8858L17.3928 21.8858ZM17.4021 20.8858L7.10136 20.8137L7.09213 21.8136L17.3928 21.8858L17.4021 20.8858Z" fill="#404660"/>
<path d="M17.1636 25C17.4397 25.0019 17.6657 24.7796 17.6682 24.5035C17.6707 24.2274 17.449 24.002 17.1728 24L17.1636 25ZM17.1728 24L6.87211 23.9279L6.86288 24.9278L17.1636 25L17.1728 24Z" fill="#404660"/>
<path d="M17.1636 28.25C17.4397 28.2519 17.6657 28.0296 17.6682 27.7535C17.6707 27.4774 17.449 27.252 17.1728 27.25L17.1636 28.25ZM17.1728 27.25L6.87211 27.1779L6.86288 28.1778L17.1636 28.25L17.1728 27.25Z" fill="#404660"/>
<rect x="30.0182" y="30.223" width="12.1624" height="11.7636" rx="0.5" transform="rotate(180 30.0182 30.223)" fill="#F9F9F9" stroke="#404660"/>
</svg>
