<svg width="51" height="40" viewBox="0 0 51 40" fill="none" xmlns="http://www.w3.org/2000/svg">
<mask id="path-1-inside-1_103_194" fill="white">
<path d="M12.8674 12.9072C14.0764 11.6719 16.0579 11.6506 17.2932 12.8596L38.0348 33.1592C39.2701 34.3682 39.2914 36.3497 38.0824 37.5851C36.8734 38.8204 34.8919 38.8417 33.6566 37.6327L12.9151 17.333C11.6798 16.124 11.6584 14.1425 12.8674 12.9072Z"/>
<path d="M-nan -nanL12.8674 12.9072C14.0764 11.6719 16.0579 11.6506 17.2932 12.8596L38.0348 33.1592C39.2701 34.3682 39.2914 36.3497 38.0824 37.5851L-nan -nanL38.0824 37.5851C36.8734 38.8204 34.8919 38.8417 33.6566 37.6327L12.9151 17.333C11.6798 16.124 11.6584 14.1425 12.8674 12.9072L-nan -nanZ"/>
</mask>
<path d="M12.8674 12.9072C14.0764 11.6719 16.0579 11.6506 17.2932 12.8596L38.0348 33.1592C39.2701 34.3682 39.2914 36.3497 38.0824 37.5851C36.8734 38.8204 34.8919 38.8417 33.6566 37.6327L12.9151 17.333C11.6798 16.124 11.6584 14.1425 12.8674 12.9072Z" fill="#404660"/>
<path d="M-nan -nanL12.8674 12.9072C14.0764 11.6719 16.0579 11.6506 17.2932 12.8596L38.0348 33.1592C39.2701 34.3682 39.2914 36.3497 38.0824 37.5851L-nan -nanL38.0824 37.5851C36.8734 38.8204 34.8919 38.8417 33.6566 37.6327L12.9151 17.333C11.6798 16.124 11.6584 14.1425 12.8674 12.9072L-nan -nanZ" fill="#404660"/>
<path d="M15.8943 14.2889L36.6358 34.5886L39.4337 31.7299L18.6922 11.4302L15.8943 14.2889ZM35.0555 36.2033L14.314 15.9037L11.5162 18.7624L32.2577 39.0621L35.0555 36.2033ZM15.8943 14.2889L36.6358 34.5886L39.4337 31.7299L18.6922 11.4302L15.8943 14.2889ZM35.0555 36.2033L14.314 15.9037L11.5162 18.7624L32.2577 39.0621L35.0555 36.2033ZM14.314 15.9037C13.8681 15.4673 13.8604 14.752 14.2968 14.3061L11.4381 11.5083C9.45649 13.533 9.49145 16.7808 11.5162 18.7624L14.314 15.9037ZM36.653 36.1861C36.2166 36.632 35.5014 36.6397 35.0555 36.2033L32.2577 39.0621C34.2824 41.0436 37.5302 41.0087 39.5118 38.984L36.653 36.1861ZM36.6358 34.5886C37.0817 35.025 37.0894 35.7402 36.653 36.1861L39.5118 38.984C41.4933 36.9592 41.4584 33.7115 39.4337 31.7299L36.6358 34.5886ZM18.6922 11.4302C16.6674 9.44861 13.4197 9.48357 11.4381 11.5083L14.2968 14.3061C14.7332 13.8602 15.4484 13.8525 15.8943 14.2889L18.6922 11.4302ZM14.314 15.9037C13.8681 15.4673 13.8604 14.752 14.2968 14.3061L11.4381 11.5083C9.45649 13.533 9.49144 16.7808 11.5162 18.7624L14.314 15.9037ZM36.653 36.1861C36.2166 36.632 35.5014 36.6397 35.0555 36.2033L32.2577 39.0621C34.2824 41.0436 37.5302 41.0087 39.5118 38.984L36.653 36.1861ZM36.6358 34.5886C37.0817 35.025 37.0894 35.7402 36.653 36.1861L39.5118 38.984C41.4933 36.9592 41.4584 33.7115 39.4337 31.7299L36.6358 34.5886ZM18.6922 11.4302C16.6674 9.44861 13.4197 9.48357 11.4381 11.5083L14.2968 14.3061C14.7332 13.8602 15.4484 13.8525 15.8943 14.2889L18.6922 11.4302Z" fill="#404660" mask="url(#path-1-inside-1_103_194)"/>
<mask id="path-3-inside-2_103_194" fill="white">
<path d="M38.072 12.8965C39.282 14.1308 39.2624 16.1123 38.0281 17.3224L17.3037 37.6396C16.0694 38.8496 14.0879 38.83 12.8779 37.5957C11.6678 36.3614 11.6875 34.3799 12.9218 33.1698L33.6461 12.8526C34.8804 11.6426 36.8619 11.6622 38.072 12.8965Z"/>
<path d="M-nan -nanL38.072 12.8965C39.282 14.1308 39.2624 16.1123 38.0281 17.3224L17.3037 37.6396C16.0694 38.8496 14.0879 38.83 12.8779 37.5957L-nan -nanL12.8779 37.5957C11.6678 36.3614 11.6875 34.3799 12.9218 33.1698L33.6461 12.8526C34.8804 11.6426 36.8619 11.6622 38.072 12.8965L-nan -nanZ"/>
</mask>
<path d="M38.072 12.8965C39.282 14.1308 39.2624 16.1123 38.0281 17.3224L17.3037 37.6396C16.0694 38.8496 14.0879 38.83 12.8779 37.5957C11.6678 36.3614 11.6875 34.3799 12.9218 33.1698L33.6461 12.8526C34.8804 11.6426 36.8619 11.6622 38.072 12.8965Z" fill="#404660"/>
<path d="M-nan -nanL38.072 12.8965C39.282 14.1308 39.2624 16.1123 38.0281 17.3224L17.3037 37.6396C16.0694 38.8496 14.0879 38.83 12.8779 37.5957L-nan -nanL12.8779 37.5957C11.6678 36.3614 11.6875 34.3799 12.9218 33.1698L33.6461 12.8526C34.8804 11.6426 36.8619 11.6622 38.072 12.8965L-nan -nanZ" fill="#404660"/>
<path d="M36.6279 15.8942L15.9036 36.2114L18.7038 39.0678L39.4282 18.7506L36.6279 15.8942ZM14.3219 34.598L35.0462 14.2808L32.246 11.4245L11.5217 31.7417L14.3219 34.598ZM36.6279 15.8942L15.9036 36.2114L18.7038 39.0678L39.4282 18.7506L36.6279 15.8942ZM14.3219 34.598L35.0462 14.2808L32.246 11.4245L11.5217 31.7417L14.3219 34.598ZM35.0462 14.2808C35.4918 13.844 36.207 13.8511 36.6438 14.2966L39.5001 11.4964C37.5168 9.47337 34.269 9.44115 32.246 11.4245L35.0462 14.2808ZM14.3061 36.1956C13.8693 35.7501 13.8764 35.0348 14.3219 34.598L11.5217 31.7417C9.49862 33.725 9.4664 36.9728 11.4497 38.9958L14.3061 36.1956ZM15.9036 36.2114C15.4581 36.6482 14.7428 36.6411 14.3061 36.1956L11.4497 38.9958C13.433 41.0189 16.6808 41.0511 18.7038 39.0678L15.9036 36.2114ZM39.4282 18.7506C41.4512 16.7673 41.4834 13.5195 39.5001 11.4964L36.6438 14.2966C37.0806 14.7422 37.0735 15.4574 36.6279 15.8942L39.4282 18.7506ZM35.0462 14.2808C35.4918 13.844 36.207 13.8511 36.6438 14.2966L39.5001 11.4964C37.5168 9.47337 34.269 9.44115 32.246 11.4245L35.0462 14.2808ZM14.3061 36.1956C13.8693 35.7501 13.8764 35.0348 14.3219 34.598L11.5217 31.7417C9.49862 33.725 9.4664 36.9728 11.4497 38.9958L14.3061 36.1956ZM15.9036 36.2114C15.4581 36.6482 14.7428 36.6411 14.3061 36.1956L11.4497 38.9958C13.433 41.0189 16.6808 41.0511 18.7038 39.0678L15.9036 36.2114ZM39.4282 18.7506C41.4512 16.7673 41.4834 13.5195 39.5001 11.4964L36.6438 14.2966C37.0806 14.7422 37.0735 15.4574 36.6279 15.8942L39.4282 18.7506Z" fill="#404660" mask="url(#path-3-inside-2_103_194)"/>
<mask id="path-5-inside-3_103_194" fill="white">
<path fill-rule="evenodd" clip-rule="evenodd" d="M22.9262 2.40789C16.5881 -1.72019 12.0442 1.3774 10.5646 3.44221L10.777 3.6722C9.87442 3.52491 8.91608 3.79062 8.20762 4.47468L4.26856 8.27808C3.22486 9.28584 3.06956 10.8674 3.81978 12.0454C2.94335 11.9306 2.02477 12.2025 1.34065 12.8653L1.15435 13.0459C-0.0355566 14.1988 -0.0655191 16.0981 1.08743 17.288L3.24761 19.5174C4.40055 20.7073 6.29981 20.7373 7.48972 19.5843L7.67602 19.4038C8.36753 18.7338 8.66729 17.8117 8.57079 16.9232C9.71094 17.6337 11.2294 17.5089 12.2396 16.5335L16.1787 12.7301C16.8034 12.1269 17.1098 11.3181 17.0943 10.5134L17.2394 10.6705C15.8124 3.69377 19.8342 3.75328 22.0235 4.65513C24.9687 5.39428 24.3041 3.30529 22.9262 2.40789Z"/>
</mask>
<path fill-rule="evenodd" clip-rule="evenodd" d="M22.9262 2.40789C16.5881 -1.72019 12.0442 1.3774 10.5646 3.44221L10.777 3.6722C9.87442 3.52491 8.91608 3.79062 8.20762 4.47468L4.26856 8.27808C3.22486 9.28584 3.06956 10.8674 3.81978 12.0454C2.94335 11.9306 2.02477 12.2025 1.34065 12.8653L1.15435 13.0459C-0.0355566 14.1988 -0.0655191 16.0981 1.08743 17.288L3.24761 19.5174C4.40055 20.7073 6.29981 20.7373 7.48972 19.5843L7.67602 19.4038C8.36753 18.7338 8.66729 17.8117 8.57079 16.9232C9.71094 17.6337 11.2294 17.5089 12.2396 16.5335L16.1787 12.7301C16.8034 12.1269 17.1098 11.3181 17.0943 10.5134L17.2394 10.6705C15.8124 3.69377 19.8342 3.75328 22.0235 4.65513C24.9687 5.39428 24.3041 3.30529 22.9262 2.40789Z" fill="#F9F9F9"/>
<path d="M10.5646 3.44221L9.58918 2.74322L9.01966 3.53798L9.68298 4.25631L10.5646 3.44221ZM22.9262 2.40789L22.2713 3.41342L22.9262 2.40789ZM10.777 3.6722L10.5837 4.85654L14.0222 5.41768L11.6586 2.8581L10.777 3.6722ZM8.20762 4.47468L7.37408 3.61142L8.20762 4.47468ZM4.26856 8.27808L3.43503 7.41482H3.43503L4.26856 8.27808ZM3.81978 12.0454L3.66395 13.2352L6.21279 13.5691L4.83195 11.4008L3.81978 12.0454ZM1.34065 12.8653L0.505614 12.0035L0.505613 12.0035L1.34065 12.8653ZM1.15435 13.0459L1.98939 13.9077L1.98939 13.9077L1.15435 13.0459ZM1.08743 17.288L1.94924 16.4529L1.94923 16.4529L1.08743 17.288ZM3.24761 19.5174L2.3858 20.3524L2.3858 20.3524L3.24761 19.5174ZM7.48972 19.5843L8.32476 20.4461H8.32476L7.48972 19.5843ZM7.67602 19.4038L6.84098 18.542H6.84098L7.67602 19.4038ZM8.57079 16.9232L9.20541 15.9048L7.11139 14.6L7.37781 17.0528L8.57079 16.9232ZM12.2396 16.5335L11.4061 15.6702L12.2396 16.5335ZM16.1787 12.7301L17.0122 13.5933V13.5933L16.1787 12.7301ZM17.0943 10.5134L17.9759 9.6993L15.8337 7.37941L15.8945 10.5365L17.0943 10.5134ZM17.2394 10.6705L16.3578 11.4846L19.2775 14.6465L18.4151 10.4301L17.2394 10.6705ZM22.0235 4.65513L21.5664 5.76468L21.6469 5.79784L21.7314 5.81904L22.0235 4.65513ZM11.54 4.14119C12.1324 3.31455 13.4047 2.20925 15.2084 1.76841C16.9645 1.33919 19.3481 1.50954 22.2713 3.41342L23.5811 1.40235C20.1661 -0.82184 17.1088 -1.16673 14.6386 -0.562969C12.2159 0.0291693 10.4765 1.50506 9.58918 2.74322L11.54 4.14119ZM11.6586 2.8581L11.4462 2.62811L9.68298 4.25631L9.89536 4.4863L11.6586 2.8581ZM9.04115 5.33795C9.46565 4.92806 10.0388 4.76761 10.5837 4.85654L10.9703 2.48787C9.71004 2.28221 8.3665 2.65318 7.37408 3.61142L9.04115 5.33795ZM5.10209 9.14135L9.04115 5.33794L7.37408 3.61142L3.43503 7.41482L5.10209 9.14135ZM4.83195 11.4008C4.38209 10.6944 4.47688 9.74503 5.10209 9.14135L3.43503 7.41482C1.97284 8.82665 1.75703 11.0403 2.8076 12.69L4.83195 11.4008ZM2.17569 13.7271C2.58574 13.3298 3.13494 13.166 3.66395 13.2352L3.9756 10.8556C2.75177 10.6953 1.46379 11.0751 0.505614 12.0035L2.17569 13.7271ZM1.98939 13.9077L2.17569 13.7271L0.505613 12.0035L0.319311 12.1841L1.98939 13.9077ZM1.94923 16.4529C1.25747 15.739 1.27544 14.5994 1.98939 13.9077L0.319312 12.1841C-1.34656 13.7982 -1.38851 16.4571 0.225622 18.123L1.94923 16.4529ZM4.10941 18.6824L1.94924 16.4529L0.225621 18.123L2.3858 20.3524L4.10941 18.6824ZM6.65468 18.7225C5.94074 19.4143 4.80118 19.3963 4.10941 18.6824L2.3858 20.3524C3.99993 22.0183 6.65889 22.0603 8.32476 20.4461L6.65468 18.7225ZM6.84098 18.542L6.65468 18.7225L8.32476 20.4461L8.51106 20.2656L6.84098 18.542ZM7.37781 17.0528C7.43606 17.5891 7.25542 18.1404 6.84098 18.542L8.51106 20.2656C9.47964 19.3271 9.89852 18.0342 9.76377 16.7937L7.37781 17.0528ZM11.4061 15.6702C10.8011 16.2544 9.88964 16.3311 9.20541 15.9048L7.93618 17.9417C9.53225 18.9362 11.6576 18.7635 13.0732 17.3967L11.4061 15.6702ZM15.3451 11.8668L11.4061 15.6702L13.0732 17.3967L17.0122 13.5933L15.3451 11.8668ZM15.8945 10.5365C15.9039 11.0217 15.72 11.5049 15.3451 11.8668L17.0122 13.5933C17.8868 12.7489 18.3157 11.6146 18.2941 10.4903L15.8945 10.5365ZM18.121 9.85645L17.9759 9.6993L16.2127 11.3275L16.3578 11.4846L18.121 9.85645ZM22.4806 3.54559C21.273 3.04816 19.2165 2.62308 17.603 3.71436C15.8633 4.89105 15.3273 7.31047 16.0637 10.911L18.4151 10.4301C17.7245 7.05385 18.4859 6.01463 18.9476 5.70235C19.5356 5.30465 20.5847 5.36025 21.5664 5.76468L22.4806 3.54559ZM22.2713 3.41342C22.3738 3.4802 22.4732 3.56046 22.5634 3.649C22.6538 3.73773 22.7291 3.82885 22.7867 3.91396C22.8152 3.9561 22.838 3.99476 22.8557 4.02887C22.8735 4.06315 22.885 4.09045 22.8919 4.11001C22.899 4.12979 22.9001 4.138 22.8996 4.13481C22.899 4.13171 22.896 4.11241 22.8978 4.07944C22.8996 4.04583 22.9067 3.99674 22.9272 3.93847C22.9482 3.87897 22.9806 3.81796 23.0251 3.76167C23.0694 3.70551 23.1171 3.66509 23.1585 3.63803C23.1987 3.61169 23.2274 3.60158 23.2344 3.59934C23.2409 3.59725 23.2287 3.60191 23.1916 3.60585C23.1547 3.60978 23.0982 3.61244 23.0189 3.60883C22.9398 3.60524 22.8421 3.59561 22.7239 3.57667C22.6059 3.55776 22.4703 3.53005 22.3156 3.49123L21.7314 5.81904C22.5427 6.02265 23.3175 6.09306 23.9672 5.88472C24.3148 5.77327 24.6532 5.57236 24.9083 5.2494C25.1648 4.92471 25.2753 4.55475 25.2942 4.211C25.3293 3.57062 25.0567 2.98633 24.7745 2.56915C24.4741 2.12507 24.0586 1.71334 23.5811 1.40235L22.2713 3.41342Z" fill="#404660" mask="url(#path-5-inside-3_103_194)"/>
<mask id="path-7-inside-4_103_194" fill="white">
<path fill-rule="evenodd" clip-rule="evenodd" d="M41.3852 19.7138C46.5378 19.1315 50.2428 14.4824 49.6605 9.32971C49.4989 7.90025 49.0244 6.5822 48.3129 5.43621C48.2693 5.44946 48.2233 5.46177 48.1748 5.4731C47.8442 5.3721 47.5501 6.05181 47.17 6.9304C46.5832 8.2867 45.7913 10.1169 44.3436 10.2806C41.9581 10.5502 39.8057 8.83488 39.5361 6.44939C39.3693 4.97305 41.0637 3.71961 42.2636 2.83203C43.0024 2.28545 43.5538 1.87762 43.3673 1.64193C43.3627 1.58975 43.3624 1.54143 43.3661 1.49681C42.0919 1.06069 40.7035 0.893097 39.2764 1.05438C34.1237 1.6367 30.4187 6.28582 31.001 11.4385C31.5834 16.5912 36.2325 20.2961 41.3852 19.7138Z"/>
</mask>
<path fill-rule="evenodd" clip-rule="evenodd" d="M41.3852 19.7138C46.5378 19.1315 50.2428 14.4824 49.6605 9.32971C49.4989 7.90025 49.0244 6.5822 48.3129 5.43621C48.2693 5.44946 48.2233 5.46177 48.1748 5.4731C47.8442 5.3721 47.5501 6.05181 47.17 6.9304C46.5832 8.2867 45.7913 10.1169 44.3436 10.2806C41.9581 10.5502 39.8057 8.83488 39.5361 6.44939C39.3693 4.97305 41.0637 3.71961 42.2636 2.83203C43.0024 2.28545 43.5538 1.87762 43.3673 1.64193C43.3627 1.58975 43.3624 1.54143 43.3661 1.49681C42.0919 1.06069 40.7035 0.893097 39.2764 1.05438C34.1237 1.6367 30.4187 6.28582 31.001 11.4385C31.5834 16.5912 36.2325 20.2961 41.3852 19.7138Z" fill="#F9F9F9"/>
<path d="M48.3129 5.43621L49.3325 4.80328L48.8462 4.02007L47.9642 4.28801L48.3129 5.43621ZM48.1748 5.4731L47.8241 6.62073L48.1332 6.71515L48.4478 6.64163L48.1748 5.4731ZM47.17 6.9304L46.0687 6.45389L47.17 6.9304ZM42.2636 2.83203L41.5499 1.86731L41.5499 1.86731L42.2636 2.83203ZM43.3673 1.64193L42.172 1.74747L42.2035 2.10494L42.4262 2.38639L43.3673 1.64193ZM43.3661 1.49681L44.562 1.59576L44.6391 0.664198L43.7547 0.361484L43.3661 1.49681ZM48.4681 9.46447C48.976 13.9586 45.7445 18.0135 41.2504 18.5214L41.5199 20.9062C47.3311 20.2495 51.5096 15.0062 50.8529 9.19495L48.4681 9.46447ZM47.2934 6.06913C47.913 7.06714 48.3269 8.21553 48.4681 9.46447L50.8529 9.19495C50.671 7.58497 50.1358 6.09727 49.3325 4.80328L47.2934 6.06913ZM47.9642 4.28801C47.9473 4.29313 47.9266 4.29876 47.9018 4.30457L48.4478 6.64163C48.52 6.62477 48.5913 6.60578 48.6617 6.5844L47.9642 4.28801ZM48.5254 4.32548C47.9517 4.15019 47.4691 4.37071 47.1875 4.59331C46.9391 4.78974 46.7707 5.03808 46.6655 5.21114C46.45 5.56577 46.2451 6.04622 46.0687 6.45389L48.2713 7.4069C48.368 7.18359 48.4511 6.99171 48.5293 6.82305C48.6088 6.65197 48.6696 6.53469 48.7164 6.45767C48.7736 6.36361 48.7645 6.40604 48.676 6.47597C48.623 6.51791 48.5167 6.58933 48.3576 6.63118C48.186 6.67635 47.9995 6.67432 47.8241 6.62073L48.5254 4.32548ZM46.0687 6.45389C45.7654 7.15473 45.4664 7.83508 45.0958 8.36561C44.7197 8.90415 44.4249 9.06374 44.2088 9.08815L44.4784 11.473C45.7101 11.3338 46.535 10.4964 47.0634 9.73987C47.5975 8.9753 47.9877 8.06237 48.2713 7.4069L46.0687 6.45389ZM44.2088 9.08815C42.4819 9.28332 40.9237 8.04157 40.7286 6.31463L38.3437 6.58415C38.6878 9.62819 41.4343 11.817 44.4784 11.473L44.2088 9.08815ZM40.7286 6.31463C40.7036 6.0934 40.8032 5.74718 41.2758 5.22652C41.735 4.72069 42.3587 4.25427 42.9772 3.79676L41.5499 1.86731C40.9685 2.29736 40.1451 2.90146 39.4989 3.61333C38.8661 4.31037 38.2019 5.32903 38.3437 6.58415L40.7286 6.31463ZM42.9772 3.79676C43.319 3.54393 43.7188 3.25128 43.9959 2.98369C44.1263 2.85786 44.3332 2.64221 44.4663 2.35476C44.6267 2.00853 44.7227 1.42114 44.3085 0.897464L42.4262 2.38639C42.2968 2.22282 42.2133 2.01193 42.2046 1.78398C42.1967 1.57612 42.2532 1.42239 42.2885 1.34614C42.3476 1.21853 42.4055 1.18319 42.3289 1.2571C42.1923 1.38899 41.947 1.57355 41.5499 1.86731L42.9772 3.79676ZM44.5627 1.53639C44.5633 1.54315 44.5646 1.56379 44.562 1.59576L42.1702 1.39787C42.1601 1.51906 42.1622 1.63636 42.172 1.74747L44.5627 1.53639ZM39.4111 2.24679C40.658 2.10587 41.8679 2.25234 42.9774 2.63215L43.7547 0.361484C42.316 -0.130968 40.7489 -0.31968 39.1416 -0.138032L39.4111 2.24679ZM32.1935 11.3037C31.6856 6.80962 34.917 2.75468 39.4111 2.24679L39.1416 -0.138032C33.3304 0.518715 29.1519 5.76203 29.8086 11.5732L32.1935 11.3037ZM41.2504 18.5214C36.7563 19.0293 32.7013 15.7978 32.1935 11.3037L29.8086 11.5732C30.4654 17.3845 35.7087 21.563 41.5199 20.9062L41.2504 18.5214Z" fill="#404660" mask="url(#path-7-inside-4_103_194)"/>
</svg>
