<svg width="93" height="26" viewBox="0 0 93 26" fill="none" xmlns="http://www.w3.org/2000/svg">
<rect x="0.5" y="10.5" width="92" height="5" rx="2.5" fill="#404660" stroke="#404660"/>
<path d="M20.5 2H23.5H29L36 5.5H58L65 2H73.5C75.9 2 76.5 3.66667 76.5 4.5V21.5C76.5 23.1 75.1667 23.8333 74.5 24H65L58 20.5H36L28.5 24H20.5C18.5 23.6 18 21.8333 18 21V11V4C18.4 2.4 19.8333 2 20.5 2Z" fill="#F9F9F9" stroke="#404660" stroke-width="3"/>
<path d="M26 2.5H23V23.5H26V2.5Z" fill="#F9F9F9"/>
<path d="M46 6H40V20H46V6Z" fill="#F9F9F9"/>
<path d="M56.5 6H51V20H56.5V6Z" fill="#F9F9F9"/>
<path d="M64.5 2.5L61.5 4V22L64.5 23.5H67.5V2.5H64.5Z" fill="#F9F9F9"/>
<path d="M26 2.5H23V23.5H26V2.5Z" stroke="#404660"/>
<path d="M46 6H40V20H46V6Z" stroke="#404660"/>
<path d="M56.5 6H51V20H56.5V6Z" stroke="#404660"/>
<path d="M64.5 2.5L61.5 4V22L64.5 23.5H67.5V2.5H64.5Z" stroke="#404660"/>
</svg>
