<svg width="40" height="40" viewBox="0 0 40 40" fill="none" xmlns="http://www.w3.org/2000/svg">
<path d="M20.74 13.8514V34.0359" stroke="#404660" stroke-linecap="round" stroke-linejoin="round"/>
<path d="M25.9434 35.7025H3.88867V28.3879" stroke="#404660" stroke-width="3" stroke-linecap="round" stroke-linejoin="round"/>
<path d="M4.07397 20.0549V2H37.3136V18.6661" stroke="#404660" stroke-width="3" stroke-linecap="round" stroke-linejoin="round"/>
<circle cx="3.98134" cy="24.0363" r="3.48134" fill="#F9F9F9" stroke="#404660"/>
<path d="M26.9436 39.2209V32.0916" stroke="#404660" stroke-linecap="round" stroke-linejoin="round"/>
<path d="M29.6287 39.2209V32.0916" stroke="#404660" stroke-linecap="round" stroke-linejoin="round"/>
<circle cx="3.98149" cy="12.37" r="1.07402" fill="#F9F9F9"/>
<circle cx="3.98149" cy="12.37" r="1.07402" fill="#F9F9F9"/>
<circle cx="3.98149" cy="12.37" r="1.07402" stroke="#404660"/>
<path d="M35.832 12.5552H17.6844C17.3758 11.0121 16.4067 8.85163 14.9994 12.5552C14.5364 10.9812 13.3883 8.77756 12.4994 12.5552C11.9439 10.9503 10.5921 8.70349 9.62917 12.5552C9.25882 10.9195 8.22181 8.62941 7.03667 12.5552H5.83301" stroke="#404660" stroke-linecap="round" stroke-linejoin="round"/>
<circle cx="37.3135" cy="12.37" r="1.07402" fill="#F9F9F9"/>
<circle cx="37.3135" cy="12.37" r="1.07402" fill="#F9F9F9"/>
<circle cx="37.3135" cy="12.37" r="1.07402" stroke="#404660"/>
<circle cx="20.6475" cy="12.37" r="1.07402" fill="#F9F9F9"/>
<circle cx="20.6475" cy="12.37" r="1.07402" fill="#F9F9F9"/>
<circle cx="20.6475" cy="12.37" r="1.07402" stroke="#404660"/>
<circle cx="20.6475" cy="35.7026" r="1.07402" fill="#F9F9F9"/>
<circle cx="20.6475" cy="35.7026" r="1.07402" fill="#F9F9F9"/>
<circle cx="20.6475" cy="35.7026" r="1.07402" stroke="#404660"/>
<circle cx="28.9806" cy="12.37" r="3.48134" fill="#F9F9F9" stroke="#404660"/>
<rect x="18.6475" y="18.8883" width="3.99983" height="8.99965" fill="#F9F9F9" stroke="#404660"/>
<path d="M37.406 28.3879V35.7025H30.9062" stroke="#404660" stroke-width="3" stroke-linecap="round" stroke-linejoin="round"/>
<rect x="35.3135" y="18.8883" width="3.99983" height="8.99965" fill="#F9F9F9" stroke="#404660"/>
<path d="M4 21V23.5" stroke="#404660" stroke-linecap="round" stroke-linejoin="round"/>
<path d="M5.5 23L4 24.5L2.5 23" stroke="#404660" stroke-linecap="round" stroke-linejoin="round"/>
<path d="M32.5247 12.5583L30.025 12.5165" stroke="#404660" stroke-linecap="round" stroke-linejoin="round"/>
<path d="M30.4999 14.0247L29.0252 12.4999L30.55 11.0251" stroke="#404660" stroke-linecap="round" stroke-linejoin="round"/>
</svg>
