<svg width="58" height="77" viewBox="0 0 58 77" fill="none" xmlns="http://www.w3.org/2000/svg">
<path d="M24.7157 22.5442L24.1621 23.5592L33.6659 29.0953L34.2195 28.0804L24.7157 22.5442Z" fill="#F9F9F9"/>
<path d="M14.9053 58.8833L7.95264 54.7611L23.823 27.0803L30.9601 31.018L14.9053 58.8833Z" stroke="#404660" stroke-width="3"/>
<path d="M13 58L9 55.5L5 62.5L9 65L13 58Z" fill="#D9D9D9"/>
<path d="M13 58L9 55.5L5 62.5L9 65L13 58Z" fill="#404660"/>
<path d="M13 58L9 55.5L5 62.5L9 65L13 58Z" stroke="#404660" stroke-width="3"/>
<path d="M24.6235 23.9282L23.1472 26.5118L31.8205 31.4943L33.1123 28.9108L24.6235 23.9282Z" fill="#F9F9F9" stroke="#404660" stroke-width="3"/>
<path d="M48.5 2.50261L47.7558 3.80498L48.5 2.50261ZM55.8292 13.8441C56.5701 14.2146 57.4712 13.9142 57.8416 13.1733C58.2121 12.4323 57.9118 11.5313 57.1708 11.1608L55.8292 13.8441ZM43.2481 5.83466C43.6541 5.22568 44.4153 4.39369 45.3023 3.90202C46.1431 3.4359 46.9418 3.33981 47.7558 3.80498L49.2442 1.20025C47.2582 0.0654103 45.3069 0.469324 43.8477 1.2782C42.4347 2.06154 41.3459 3.27955 40.7519 4.17056L43.2481 5.83466ZM47.7558 3.80498C49.0014 4.51674 49.4805 5.60611 49.4386 6.69488C49.3948 7.8328 48.7728 9.01777 47.6679 9.75437L49.3321 12.2505C51.2272 10.9871 52.3552 8.92217 52.4364 6.81018C52.5195 4.64902 51.4986 2.48849 49.2442 1.20025L47.7558 3.80498ZM47.6679 9.75437C46.0534 10.8307 44.6823 12.1415 43.9569 13.6728C43.1906 15.2906 43.1929 17.0728 44.2138 18.7742L46.7862 17.2307C46.3071 16.4321 46.3094 15.7142 46.6681 14.9571C47.0677 14.1134 47.9466 13.1742 49.3321 12.2505L47.6679 9.75437ZM44.2138 18.7742C45.0969 20.2461 46.5085 21.582 48.2612 22.0202C50.1541 22.4934 52.093 21.834 53.6523 19.9627L51.3477 18.0422C50.407 19.1709 49.5959 19.2615 48.9888 19.1097C48.2415 18.9229 47.4031 18.2588 46.7862 17.2307L44.2138 18.7742ZM53.6523 19.9627C55.1327 18.1862 55.7133 15.9756 56.1169 14.7072C56.2243 14.3698 56.313 14.1111 56.3978 13.9091C56.4868 13.697 56.5376 13.6317 56.5351 13.6346C56.5171 13.6562 56.3828 13.8005 56.1248 13.8474C55.8845 13.8911 55.7586 13.8088 55.8292 13.8441L57.1708 11.1608C56.7414 10.9461 56.1936 10.7857 55.5881 10.8958C54.9649 11.0091 54.5219 11.3643 54.2305 11.714C53.7334 12.3105 53.4545 13.1806 53.2581 13.7976C52.7867 15.2793 52.3673 16.8186 51.3477 18.0422L53.6523 19.9627Z" fill="#404660"/>
<path d="M25.454 22.5439C25.0111 22.3225 24.7773 22.5747 24.7158 22.7285L34.1273 28.1724C34.3487 27.8033 34.0965 27.5265 33.9428 27.4342L32.1896 26.4193L36.2495 17.5614L32.9278 15.4392L27.0226 23.4666C26.6842 23.2513 25.8969 22.7654 25.454 22.5439Z" fill="#F9F9F9" stroke="#404660" stroke-width="3"/>
<path d="M34.0714 13.5027C33.3571 13.0033 33.0595 14.2399 33 14.5L37 16.5C37.3571 16.0318 37.8214 15.2196 37.4643 15.0635L41 9.5V8C41.8333 6.75136 43 4.88709 43 4.76222C43 4.60614 43 4.45005 42.4643 4.13789C42.0357 3.88816 41.6905 4.03383 41.5714 4.13789L39.5 7L38 7.88381L34.0714 13.5027Z" fill="#404660" stroke="#404660"/>
<path d="M1 76L5.5 63L8.5 65L1 76Z" stroke="#404660" stroke-linejoin="round"/>
</svg>
