<svg width="26" height="56" viewBox="0 0 26 56" fill="none" xmlns="http://www.w3.org/2000/svg">
<mask id="path-1-inside-1_103_143" fill="white">
<path fill-rule="evenodd" clip-rule="evenodd" d="M25.6721 11.376V28.9835C25.6721 30.088 24.7767 30.9835 23.6721 30.9835H2C0.895432 30.9835 0 30.088 0 28.9835V10.3552C0 10.34 0.0123152 10.3277 0.0275068 10.3277C0.0416194 10.3277 0.0534477 10.317 0.0549119 10.3029C0.657704 4.52452 6.14989 0 12.8361 0C19.5223 0 25.0145 4.52452 25.6172 10.3029C25.6187 10.317 25.6305 10.3277 25.6446 10.3277C25.6598 10.3277 25.6721 10.34 25.6721 10.3552V11.3453C25.6721 11.3504 25.6721 11.3555 25.6721 11.3607C25.6721 11.3658 25.6721 11.3709 25.6721 11.376Z"/>
</mask>
<path fill-rule="evenodd" clip-rule="evenodd" d="M25.6721 11.376V28.9835C25.6721 30.088 24.7767 30.9835 23.6721 30.9835H2C0.895432 30.9835 0 30.088 0 28.9835V10.3552C0 10.34 0.0123152 10.3277 0.0275068 10.3277C0.0416194 10.3277 0.0534477 10.317 0.0549119 10.3029C0.657704 4.52452 6.14989 0 12.8361 0C19.5223 0 25.0145 4.52452 25.6172 10.3029C25.6187 10.317 25.6305 10.3277 25.6446 10.3277C25.6598 10.3277 25.6721 10.34 25.6721 10.3552V11.3453C25.6721 11.3504 25.6721 11.3555 25.6721 11.3607C25.6721 11.3658 25.6721 11.3709 25.6721 11.376Z" fill="#F9F9F9"/>
<path d="M25.6721 11.376L22.6721 11.3715V11.376H25.6721ZM25.6721 11.3453H22.6721L22.6721 11.3498L25.6721 11.3453ZM0.0549119 10.3029L3.03872 10.6142L0.0549119 10.3029ZM25.6172 10.3029L22.6334 10.6142L25.6172 10.3029ZM22.6721 11.376V28.9835H28.6721V11.376H22.6721ZM23.6721 27.9835H2V33.9835H23.6721V27.9835ZM3 28.9835V10.3552H-3V28.9835H3ZM3.03872 10.6142C3.45404 6.63295 7.39967 3 12.8361 3V-3C4.90011 -3 -2.13863 2.41609 -2.9289 9.99165L3.03872 10.6142ZM12.8361 3C18.2725 3 22.2181 6.63295 22.6334 10.6142L28.6011 9.99166C27.8108 2.4161 20.772 -3 12.8361 -3V3ZM22.6721 10.3552V11.3453H28.6721V10.3552H22.6721ZM22.6721 11.3498C22.6721 11.3534 22.6721 11.357 22.6721 11.3607H28.6721C28.6721 11.3541 28.6721 11.3474 28.6721 11.3408L22.6721 11.3498ZM22.6721 11.3607C22.6721 11.3643 22.6721 11.3679 22.6721 11.3715L28.6721 11.3805C28.6721 11.3739 28.6721 11.3673 28.6721 11.3607H22.6721ZM25.6446 13.3277C24.003 13.3277 22.6721 11.9969 22.6721 10.3552H28.6721C28.6721 8.68318 27.3167 7.32772 25.6446 7.32772V13.3277ZM0.0275068 13.3277C1.59508 13.3277 2.87963 12.1392 3.03872 10.6142L-2.9289 9.99165C-2.77274 8.49471 -1.51184 7.32772 0.0275068 7.32772V13.3277ZM3 10.3552C3 11.997 1.66902 13.3277 0.0275068 13.3277V7.32772C-1.64439 7.32772 -3 8.68303 -3 10.3552H3ZM2 27.9835C2.55228 27.9835 3 28.4312 3 28.9835H-3C-3 31.7449 -0.761421 33.9835 2 33.9835V27.9835ZM22.6334 10.6142C22.7925 12.1392 24.077 13.3277 25.6446 13.3277V7.32772C27.184 7.32772 28.4449 8.49475 28.6011 9.99166L22.6334 10.6142ZM22.6721 28.9835C22.6721 28.4312 23.1199 27.9835 23.6721 27.9835V33.9835C26.4336 33.9835 28.6721 31.7449 28.6721 28.9835H22.6721Z" fill="#404660" mask="url(#path-1-inside-1_103_143)"/>
<path d="M13.2787 54L13.2787 30.9836M2.65576 54L2.65576 40.7213L5.3115 35.6865V30.9836" stroke="#404660" stroke-width="3" stroke-linecap="round"/>
<path d="M23.9016 54V40.7213L21.2459 35.6865V30.9836" stroke="#404660" stroke-width="3" stroke-linecap="round"/>
<rect x="2.5" y="12.8934" width="21.1311" height="14.9344" fill="#F9F9F9" stroke="#404660"/>
<path d="M10.0298 24V16.95H10.9898L14.7798 21.87V16.95H15.9698V24H15.0198L11.2198 19.06V24H10.0298Z" fill="#404660"/>
</svg>
